<?xml version="1.0" encoding="UTF-8"?>
<svg width="127px" height="23px" viewBox="0 0 127 23" version="1.1" xmlns="http://www.w3.org/2000/svg" xmlns:xlink="http://www.w3.org/1999/xlink">
    <!-- Generator: Sketch 41 (35326) - http://www.bohemiancoding.com/sketch -->
    <title>Group 2</title>
    <desc>Created with Sketch.</desc>
    <defs></defs>
    <g id="Page-1" stroke="none" stroke-width="1" fill="none" fill-rule="evenodd">
        <g id="Group-2" transform="translate(0.000000, -2.000000)">
            <path d="M49.7010122,13.076 C49.7010122,7.366 53.9410122,3 59.7930122,3 C63.3130122,3 66.4080122,4.753 68.1040122,7.495 L64.2740122,9.714 C63.4120122,8.215 61.7580122,7.325 59.7940122,7.325 C56.3590122,7.325 54.1400122,9.629 54.1400122,13.092 C54.1400122,16.555 56.3590122,18.859 59.7930122,18.859 C61.7580122,18.859 63.4540122,17.969 64.2730122,16.469 L68.1040122,18.689 C66.4360122,21.431 63.3410122,23.184 59.7940122,23.184 C53.9410122,23.169 49.7000122,18.786 49.7000122,13.076 L49.7010122,13.076 Z" id="Path" fill="#24282C"></path>
            <path d="M83.3969902,8 L83.3969902,23.151 L79.0989902,23.151 L79.0989902,21.384 C78.1519902,22.472 76.7529902,23.137 74.8299902,23.137 C71.0849902,23.137 67.9899902,19.843 67.9899902,15.575 C67.9899902,11.306 71.0849902,8.013 74.8299902,8.013 C76.7529902,8.013 78.1519902,8.677 79.0989902,9.766 L79.0989902,8.014 L83.3959902,8.014 L83.3959902,8 L83.3969902,8 Z M79.0989902,15.561 C79.0989902,13.412 77.6709902,12.069 75.6929902,12.069 C73.7129902,12.069 72.2859902,13.412 72.2859902,15.561 C72.2859902,17.709 73.7139902,19.051 75.6929902,19.051 C77.6709902,19.051 79.0989902,17.709 79.0989902,15.561 L79.0989902,15.561 Z" id="Shape" fill="#24282C"></path>
            <path d="M33.6800003,8 L33.6800003,12.904 C31.8847934,12.622 29.3405002,13.343 29.3405002,16.198 L29.3405002,23.138 L25,23.138 L25,8 L29.3545018,8 L29.3545018,10.855 C29.9345687,8.919 31.8707918,8 33.6800003,8 L33.6800003,8 Z" id="Path" fill="#24282C"></path>
            <path d="M41.6860122,19.279 C42.8600122,19.279 43.8630122,18.827 44.4430122,18.191 L47.8770122,20.169 C46.4780122,22.12 44.3570122,23.124 41.6300122,23.124 C36.7400122,23.124 33.7000122,19.83 33.7000122,15.562 C33.7000122,11.293 36.7960122,8 41.3190122,8 C45.5030122,8 48.5990122,11.237 48.5990122,15.562 C48.5990122,16.169 48.5420122,16.735 48.4290122,17.286 L38.2660122,17.286 C38.7890122,18.77 40.1180122,19.279 41.6860122,19.279 Z M44.3300122,14.063 C43.8770122,12.41 42.5770122,11.802 41.2900122,11.802 C39.6650122,11.802 38.5630122,12.608 38.1670122,14.063 L44.3300122,14.063 L44.3300122,14.063 Z" id="Shape" fill="#24282C"></path>
            <path d="M110.286,13.784 L110.286,23.198 L106.131,23.198 L106.131,14.392 C106.131,12.668 105.056,11.876 103.728,11.876 C102.201,11.876 101.155,12.766 101.155,14.731 L101.155,23.198 L97,23.198 L97,3 L101.155,3 L101.155,9.742 C101.905,8.71 103.29,8.046 105.113,8.046 C107.912,8.046 110.286,10.039 110.286,13.784 Z" id="Path" fill="#24282C"></path>
            <text id="s" font-family="ToppanBunkyuMidashiGothicStdN-ExtraBold, Toppan Bunkyu Midashi Gothic" font-size="26" font-weight="600" letter-spacing="-0.606666625" fill="#24282C">
                <tspan x="83" y="23">s</tspan>
            </text>
            <text id=".in" font-family="OpenSans-Extrabold, Open Sans" font-size="15" font-weight="600" letter-spacing="-0.949999988" fill="#24282C">
                <tspan x="110.299988" y="23.0499878">.in</tspan>
            </text>
            <path d="M12.121,16.8730113 C11.8667827,17.1590334 11.5190004,17.3451554 11.14,17.3980113 C11.108,17.4150113 11.035,17.4680113 11.035,17.4680113 L10.79,17.4680113 L10.72,17.4330113 C10.685,17.4330113 10.685,17.4330113 10.65,17.3980113 C10.2829907,17.3405321 9.97695326,17.1815743 9.739,16.9430113 L8.339,15.5070113 L4.801,12.0070113 C4.17109075,11.3888893 3.96497225,10.4574366 4.27527628,9.63125753 C4.5855803,8.80507848 5.35392173,8.23962248 6.235,8.18901128 L6.375,8.18901128 C6.958,8.19001128 7.515,8.42901128 7.915,8.85401128 L10.893,11.8410113 L17.967,4.76701128 C17.987,4.74701128 18.01,4.73701128 18.037,4.73201128 C16.0613624,2.96889112 13.5049656,1.99617857 10.857,2.00001128 C4.8607497,2.00166768 0.000551912152,6.86276078 0,12.8590113 C0.0016563974,18.8552616 4.8627495,23.7154594 10.859,23.7160113 C16.8552503,23.7143549 21.7154481,18.8532618 21.716,12.8570113 C21.719,11.3090113 21.386,9.77901128 20.736,8.37401128 L17.829,11.1740113 L12.121,16.8730113 Z" id="Shape" fill="#F75D34"></path>
        </g>
    </g>
</svg>