<?xml version="1.0" encoding="UTF-8"?>
<svg width="252px" height="156px" viewBox="0 0 252 156" version="1.1" xmlns="http://www.w3.org/2000/svg" xmlns:xlink="http://www.w3.org/1999/xlink">
    <!-- Generator: Sketch 41 (35326) - http://www.bohemiancoding.com/sketch -->
    <title>back-camera</title>
    <desc>Created with Sketch.</desc>
    <defs></defs>
    <g id="Page-1" stroke="none" stroke-width="1" fill="none" fill-rule="evenodd">
        <g id="back-camera">
            <g id="Layer_1">
                <path d="M46.9,3.4 L30.1,3.4 C26.4,3.4 23.4,6.3 23.4,9.9 L23.4,16.4 L53.6,16.4 L53.6,9.9 C53.6,6.3 50.6,3.4 46.9,3.4 Z" id="XMLID_117_" fill="#C9C6CA"></path>
                <g id="XMLID_114_" transform="translate(23.000000, 3.000000)" fill="#C0BCC1">
                    <path d="M17.2,0.4 L7.1,0.4 C3.4,0.4 0.4,3.3 0.4,6.9 L0.4,13.4 L10.5,13.4 L10.5,6.9 C10.5,3.3 13.5,0.4 17.2,0.4 Z" id="XMLID_116_"></path>
                    <path d="M57.5,0.4 L50.8,0.4 C47.1,0.4 44.1,3.3 44.1,6.9 L44.1,13.4 L64.2,13.4 L64.2,6.9 C64.2,3.3 61.2,0.4 57.5,0.4 Z" id="XMLID_115_"></path>
                </g>
                <path d="M73.7,3.4 C70,3.4 67,6.3 67,9.9 L67,16.4 L77.1,16.4 L77.1,3.4 L73.7,3.4 L73.7,3.4 Z" id="XMLID_113_" fill="#AEA8AF"></path>
                <path d="M201.3,152.4 L13.3,152.4 C7.7,152.4 3.2,148 3.2,142.7 L3.2,26.1 C3.2,20.7 7.7,16.4 13.3,16.4 L201.3,16.4 C206.9,16.4 211.4,20.8 211.4,26.1 L211.4,142.7 C211.4,148.1 206.9,152.4 201.3,152.4 Z" id="XMLID_110_" fill="#ED6C0D"></path>
                <ellipse id="XMLID_107_" fill="#F15C22" cx="70.4" cy="84.4" rx="50.4" ry="48.6"></ellipse>
                <ellipse id="XMLID_106_" fill="#F28E26" cx="70.4" cy="84.4" rx="40.3" ry="38.9"></ellipse>
                <path d="M49.5,61.7 C47.4,61.7 45.5,62.6 44.2,64.2 C39.6,69.7 36.9,76.8 36.9,84.4 C36.9,92 39.7,99.1 44.2,104.6 C45.5,106.2 47.4,107.1 49.5,107.1 L91.3,107.1 C93.4,107.1 95.3,106.2 96.6,104.6 C101.2,99.1 103.9,92 103.9,84.4 C103.9,76.8 101.1,69.7 96.6,64.2 C95.3,62.6 93.4,61.7 91.3,61.7 L49.5,61.7 Z" id="XMLID_105_" fill="#E6E9ED"></path>
                <ellipse id="XMLID_100_" fill="#F15C22" cx="70.4" cy="84.4" rx="10.1" ry="9.7"></ellipse>
                <ellipse id="XMLID_99_" fill="#FFFFFF" cx="80.5" cy="74.7" rx="6.7" ry="6.5"></ellipse>
                <path d="M13.3,84.4 L13.3,16.4 C7.7,16.4 3.2,20.8 3.2,26.1 L3.2,142.7 C3.2,148.1 7.7,152.4 13.3,152.4 L201.3,152.4 C206.9,152.4 211.4,148 211.4,142.7 L73.7,142.7 C40.4,142.7 13.3,116.6 13.3,84.4 Z" id="XMLID_98_" fill="#FFFFFF"></path>
                <path d="M201.3,13.3 L90.3,13.3 L90.3,9.9 C90.3,4.7 85.9,0.4 80.4,0.4 L73.7,0.4 C68.3,0.4 63.8,4.7 63.8,9.9 L63.8,13.3 L56.7,13.3 L56.7,9.9 C56.7,4.7 52.3,0.4 46.8,0.4 L30.1,0.4 C24.7,0.4 20.2,4.7 20.2,9.9 L20.2,13.3 L13.3,13.3 C6,13.3 0.1,19 0.1,26.1 L0.1,142.7 C0.1,149.7 6,155.5 13.3,155.5 L201.3,155.5 C208.6,155.5 214.5,149.8 214.5,142.7 L214.5,26.1 C214.5,19 208.6,13.3 201.3,13.3 Z M70.2,9.9 C70.2,8 71.8,6.5 73.8,6.5 L80.5,6.5 C82.5,6.5 84.1,8 84.1,9.9 L84.1,13.3 L70.2,13.3 L70.2,9.9 L70.2,9.9 Z M26.5,9.9 C26.5,8 28.1,6.5 30.1,6.5 L46.9,6.5 C48.9,6.5 50.5,8 50.5,9.9 L50.5,13.3 L26.5,13.3 L26.5,9.9 Z M208.2,142.7 C208.2,146.4 205.1,149.4 201.3,149.4 L13.3,149.4 C9.5,149.4 6.4,146.4 6.4,142.7 L6.4,26.1 C6.4,22.4 9.5,19.4 13.3,19.4 L201.3,19.4 C205.1,19.4 208.2,22.4 208.2,26.1 L208.2,142.7 L208.2,142.7 Z" id="XMLID_93_" fill="#2C3439"></path>
                <path d="M49.5,110.1 L91.3,110.1 C94.3,110.1 97.2,108.8 99.1,106.5 C104.4,100.2 107.1,92.5 107.1,84.4 C107.1,76.3 104.3,68.6 99.1,62.3 C97.2,60 94.4,58.7 91.3,58.7 L49.5,58.7 C46.5,58.7 43.6,60 41.7,62.3 C36.4,68.6 33.7,76.3 33.7,84.4 C33.7,92.5 36.5,100.2 41.7,106.5 C43.6,108.8 46.4,110.1 49.5,110.1 Z M46.6,66.1 C47.3,65.2 48.3,64.8 49.5,64.8 L91.3,64.8 C92.4,64.8 93.4,65.3 94.2,66.1 C98.6,71.4 100.9,77.7 100.9,84.4 C100.9,91.1 98.6,97.5 94.2,102.7 C93.5,103.6 92.5,104 91.3,104 L49.5,104 C48.4,104 47.4,103.5 46.6,102.7 C42.2,97.4 39.9,91.1 39.9,84.4 C40,77.7 42.3,71.3 46.6,66.1 Z" id="XMLID_86_" fill="#2C3439"></path>
                <path d="M70.4,97.1 C77.7,97.1 83.6,91.4 83.6,84.3 C83.6,77.3 77.7,71.5 70.4,71.5 C63.1,71.5 57.2,77.2 57.2,84.3 C57.2,91.4 63.1,97.1 70.4,97.1 Z M70.4,77.7 C74.2,77.7 77.3,80.7 77.3,84.4 C77.3,88.1 74.2,91.1 70.4,91.1 C66.6,91.1 63.5,88.1 63.5,84.4 C63.5,80.7 66.6,77.7 70.4,77.7 Z" id="XMLID_79_" fill="#2C3439"></path>
                <path d="M37,52.2 C53.6,36.1 80.3,34.4 99,48.2 C100.4,49.2 102.3,49 103.4,47.6 C104.5,46.3 104.2,44.4 102.8,43.4 C92.6,35.8 79.9,32.1 67,32.9 C54,33.7 41.8,39 32.6,47.9 C23.4,56.8 17.9,68.6 17.1,81.2 C16.3,93.6 20.2,105.9 28,115.7 C28.6,116.5 29.6,116.9 30.5,116.9 C31.2,116.9 31.8,116.7 32.4,116.3 C33.8,115.3 34,113.4 33,112.1 C18.6,93.9 20.4,68.2 37,52.2 Z" id="XMLID_78_" fill="#2C3439"></path>
                <path d="M108.5,52.5 C107.1,53.5 106.9,55.4 107.9,56.7 C122.2,74.7 120.4,100.5 103.8,116.5 C87.2,132.6 60.5,134.3 41.8,120.5 C40.4,119.5 38.5,119.7 37.4,121.1 C36.3,122.4 36.6,124.3 38,125.3 C47.3,132.2 58.8,135.9 70.5,135.9 C71.6,135.9 72.7,135.9 73.8,135.8 C86.8,135 99,129.7 108.2,120.8 C117.4,111.9 122.9,100.1 123.7,87.5 C124.5,75.1 120.6,62.8 112.8,53 C111.8,51.8 109.9,51.5 108.5,52.5 Z" id="XMLID_77_" fill="#2C3439"></path>
                <path d="M198.3,29.5 C169,29.5 145.3,53.2 145.3,82.5 C145.3,111.8 169,135.5 198.3,135.5 C227.6,135.5 251.3,111.8 251.3,82.5 C251.3,53.2 227.6,29.5 198.3,29.5 Z M198.3,125.7 C174.4,125.7 155.1,106.4 155.1,82.5 C155.1,58.6 174.4,39.3 198.3,39.3 C222.2,39.3 241.5,58.6 241.5,82.5 C241.5,106.4 222.1,125.7 198.3,125.7 Z M198.3,52.7 C194.4,52.7 191.7,54.7 191.7,57.9 L191.7,87.2 C191.7,90.4 194.7,92.4 198.3,92.4 C201.9,92.4 204.9,90.4 204.9,87.2 L204.9,57.9 C205.1,54.7 202.1,52.7 198.3,52.7 Z M198.3,99.1 C194.7,99.1 191.7,102.1 191.7,105.7 C191.7,109.3 194.7,112.3 198.3,112.3 C201.9,112.3 204.9,109.3 204.9,105.7 C204.9,102 201.9,99.1 198.3,99.1 Z" id="XMLID_72_" fill="#FC3527"></path>
            </g>
        </g>
    </g>
</svg>