<?xml version="1.0" encoding="UTF-8"?>
<svg width="184px" height="223px" viewBox="0 0 184 223" version="1.1" xmlns="http://www.w3.org/2000/svg" xmlns:xlink="http://www.w3.org/1999/xlink">
    <!-- Generator: Sketch 41 (35326) - http://www.bohemiancoding.com/sketch -->
    <title>battery</title>
    <desc>Created with Sketch.</desc>
    <defs></defs>
    <g id="Page-1" stroke="none" stroke-width="1" fill="none" fill-rule="evenodd">
        <g id="battery" transform="translate(0.000000, 3.000000)">
            <g id="Layer_1">
                <g id="Group">
                    <g>
                        <path d="M105.7,220 L10.3,220 C5.1,220 0.9,215.8 0.9,210.6 L0.9,23.8 C0.9,18.6 5.1,14.4 10.3,14.4 L105.8,14.4 C111,14.4 115.2,18.6 115.2,23.8 L115.2,210.7 C115.1,215.8 110.9,220 105.7,220 Z" id="XMLID_156_" fill="#FFFFFF"></path>
                        <rect id="XMLID_155_" stroke="#2C3439" stroke-width="6" fill="#F28E26" x="39" y="0" width="38.1" height="15.2"></rect>
                        <path d="M105.7,219.8 L10.3,219.8 C5.1,219.8 0.9,215.6 0.9,210.4 L0.9,191.1 C0.9,185.9 2.1,181.7 7.3,181.7 L108.8,181.7 C114,181.7 115.2,185.9 115.2,191.1 L115.2,210.4 C115.1,215.6 110.9,219.8 105.7,219.8 Z" id="XMLID_154_" fill="#F15C22"></path>
                        <path d="M108.4,19.9 C109.5,19.9 110.3,20.7 110.3,21.7 L110.3,212.3 C110.3,213.3 109.5,214.1 108.4,214.1 L7.6,214.1 C6.5,214.1 5.7,213.3 5.7,212.3 L5.7,21.7 C5.7,20.7 6.5,19.9 7.6,19.9 L108.4,19.9 L108.4,19.9 Z M105.7,14.2 L10.3,14.2 C5.1,14.2 0.9,18.4 0.9,23.6 L0.9,210.5 C0.9,215.7 5.1,219.9 10.3,219.9 L105.8,219.9 C111,219.9 115.2,215.7 115.2,210.5 L115.2,23.6 C115.1,18.4 110.9,14.2 105.7,14.2 L105.7,14.2 Z" id="XMLID_158_" fill="#2C3439"></path>
                    </g>
                    <path d="M130.1,94 C100.8,94 77.1,117.7 77.1,147 C77.1,176.3 100.8,200 130.1,200 C159.4,200 183.1,176.3 183.1,147 C183.1,117.7 159.4,94 130.1,94 Z M130.1,190.2 C106.2,190.2 86.9,170.9 86.9,147 C86.9,123.1 106.2,103.8 130.1,103.8 C154,103.8 173.3,123.1 173.3,147 C173.3,170.9 153.9,190.2 130.1,190.2 Z M130.1,117.2 C126.2,117.2 123.5,119.2 123.5,122.4 L123.5,151.7 C123.5,154.9 126.5,156.9 130.1,156.9 C133.7,156.9 136.7,154.9 136.7,151.7 L136.7,122.4 C136.9,119.2 133.9,117.2 130.1,117.2 Z M130.1,163.6 C126.5,163.6 123.5,166.6 123.5,170.2 C123.5,173.8 126.5,176.8 130.1,176.8 C133.7,176.8 136.7,173.8 136.7,170.2 C136.7,166.5 133.7,163.6 130.1,163.6 Z" id="XMLID_135_" fill="#FC3527"></path>
                </g>
            </g>
        </g>
    </g>
</svg>