<?xml version="1.0" encoding="UTF-8"?>
<svg width="310px" height="360px" viewBox="0 0 310 360" version="1.1" xmlns="http://www.w3.org/2000/svg" xmlns:xlink="http://www.w3.org/1999/xlink">
    <!-- Generator: Sketch 41 (35326) - http://www.bohemiancoding.com/sketch -->
    <title>bill</title>
    <desc>Created with Sketch.</desc>
    <defs></defs>
    <g id="Page-1" stroke="none" stroke-width="1" fill="none" fill-rule="evenodd">
        <g id="bill">
            <g id="Layer_1">
                <g id="XMLID_1413_">
                    <path d="M301.6,354 L8.6,354 C7.2,354 6,352.8 6,351.4 L6,8.6 C6,7.2 7.2,6 8.6,6 L301.6,6 C303,6 304.2,7.2 304.2,8.6 L304.2,351.3 C304.2,352.8 303.1,354 301.6,354 Z" id="XMLID_390_" fill="#ED6C0D"></path>
                    <path d="M289.7,359.5 L20.5,359.5 C9.5,359.5 0.5,350.5 0.5,339.5 L0.5,20.5 C0.5,9.5 9.5,0.5 20.5,0.5 L289.8,0.5 C300.8,0.5 309.8,9.5 309.8,20.5 L309.8,339.5 C309.8,350.5 300.8,359.5 289.7,359.5 Z M20.5,11.5 C15.6,11.5 11.5,15.5 11.5,20.5 L11.5,339.5 C11.5,344.5 15.5,348.5 20.5,348.5 L289.8,348.5 C294.7,348.5 298.8,344.5 298.8,339.5 L298.8,20.5 C298.8,15.5 294.8,11.5 289.8,11.5 L20.5,11.5 Z" id="XMLID_393_" fill="#2C3439"></path>
                    <path d="M254.1,204.9 L50.7,204.9 C50.5,204.9 50.3,204.7 50.3,204.5 L50.3,194.5 C50.3,194.3 50.5,194.1 50.7,194.1 L254.1,194.1 C254.3,194.1 254.5,194.3 254.5,194.5 L254.5,204.5 C254.5,204.7 254.3,204.9 254.1,204.9 Z" id="XMLID_388_" fill="#2C3439"></path>
                    <path d="M254.1,254.6 L50.7,254.6 C50.5,254.6 50.3,254.4 50.3,254.2 L50.3,244.2 C50.3,244 50.5,243.8 50.7,243.8 L254.1,243.8 C254.3,243.8 254.5,244 254.5,244.2 L254.5,254.2 C254.5,254.4 254.3,254.6 254.1,254.6 Z" id="XMLID_407_" fill="#2C3439"></path>
                    <path d="M254.1,304.3 L50.7,304.3 C50.5,304.3 50.3,304.1 50.3,303.9 L50.3,293.9 C50.3,293.7 50.5,293.5 50.7,293.5 L254.1,293.5 C254.3,293.5 254.5,293.7 254.5,293.9 L254.5,303.9 C254.5,304.1 254.3,304.3 254.1,304.3 Z" id="XMLID_958_" fill="#2C3439"></path>
                    <g id="XMLID_389_" transform="translate(134.000000, 55.000000)" fill="#2C3439">
                        <path d="M39.9,15 C39.6,14.7 39.3,14.6 38.9,14.6 L31.2,14.6 C30.7,12.1 29.7,10 28.3,8.1 L38.7,8.1 C39.1,8.1 39.5,8 39.7,7.7 C40,7.4 40.1,7.1 40.1,6.7 L40.1,2.1 C40.1,1.7 40,1.3 39.7,1.1 C39.4,0.8 39.1,0.7 38.7,0.7 L1.4,0.7 C1,0.7 0.6,0.8 0.4,1.1 C0.1,1.4 2.84217094e-14,1.7 2.84217094e-14,2.1 L2.84217094e-14,8.1 C2.84217094e-14,8.5 0.1,8.8 0.4,9.1 C0.7,9.4 1,9.5 1.4,9.5 L7.9,9.5 C14.2,9.5 18.2,11.2 19.9,14.6 L1.4,14.6 C1,14.6 0.6,14.7 0.4,15 C0.1,15.3 2.84217094e-14,15.6 2.84217094e-14,16 L2.84217094e-14,20.6 C2.84217094e-14,21 0.1,21.4 0.4,21.6 C0.7,21.9 1,22 1.4,22 L20.5,22 C19.8,24.5 18.3,26.3 15.9,27.6 C13.5,28.9 10.3,29.5 6.4,29.5 L1.4,29.5 C1,29.5 0.7,29.6 0.4,29.9 C0.1,30.2 2.84217094e-14,30.5 2.84217094e-14,30.9 L2.84217094e-14,36.6 C2.84217094e-14,37 0.1,37.3 0.4,37.6 C6.1,43.7 13.6,52.2 22.7,63.2 C23,63.6 23.3,63.7 23.8,63.7 L32.5,63.7 C33.1,63.7 33.6,63.4 33.8,62.9 C34.1,62.4 34,61.9 33.6,61.4 C24.9,50.7 18,42.7 13,37.4 C18.1,36.8 22.2,35.2 25.4,32.5 C28.6,29.8 30.5,26.3 31.2,22 L38.7,22 C39.1,22 39.5,21.9 39.7,21.6 C40,21.3 40.1,21 40.1,20.6 L40.1,16 C40.3,15.6 40.2,15.3 39.9,15 Z" id="XMLID_391_"></path>
                    </g>
                </g>
            </g>
        </g>
    </g>
</svg>