<?xml version="1.0" encoding="UTF-8"?>
<svg width="337px" height="360px" viewBox="0 0 337 360" version="1.1" xmlns="http://www.w3.org/2000/svg" xmlns:xlink="http://www.w3.org/1999/xlink">
    <!-- Generator: Sketch 41 (35326) - http://www.bohemiancoding.com/sketch -->
    <title>box</title>
    <desc>Created with Sketch.</desc>
    <defs></defs>
    <g id="Page-1" stroke="none" stroke-width="1" fill="none" fill-rule="evenodd">
        <g id="box">
            <g id="Layer_1">
                <g id="XMLID_558_">
                    <path d="M163.5,8.6 L8.6,83.4 C6.7,84.3 5.4,86.3 5.4,88.5 L5.4,272.5 C5.4,274.7 6.6,276.6 8.6,277.6 L163.5,352.4 C166.6,353.9 170.2,353.9 173.3,352.4 L328.2,277.6 C330.1,276.7 331.4,274.7 331.4,272.5 L331.4,88.5 C331.4,86.3 330.2,84.4 328.2,83.4 L173.3,8.6 C170.2,7.1 166.6,7.1 163.5,8.6 Z" id="XMLID_598_" fill="#ED6C0D"></path>
                    <path d="M6.4,85.4 C5.8,86.3 5.5,87.4 5.5,88.5 L5.5,272.5 C5.5,274.7 6.7,276.6 8.7,277.6 L163.6,352.4 C165.1,353.1 166.8,353.5 168.5,353.5 L168.5,163.6 L6.4,85.4 Z" id="XMLID_596_" fill="#FFFFFF"></path>
                    <path d="M330.5,85.4 C331.1,86.3 331.4,87.4 331.4,88.5 L331.4,272.5 C331.4,274.7 330.2,276.6 328.2,277.6 L173.3,352.4 C171.8,353.1 170.1,353.5 168.4,353.5 L168.4,163.6 L330.5,85.4 Z" id="XMLID_595_" fill="#FFFFFF"></path>
                    <polygon id="XMLID_594_" fill="#E6E9ED" points="275.6 111.8 112.9 33.3 70.1 54 233.1 132.7"></polygon>
                    <path d="M233.1,132.7 L233.1,193.7 C233.1,195.8 235.3,197.1 237.1,196.2 L272.4,179.2 C274.3,178.3 275.6,176.3 275.6,174.1 L275.6,111.8 L233.1,132.7 Z" id="XMLID_593_" fill="#E6E9ED"></path>
                    <path d="M333.7,80.2 L170.7,1.5 C169.3,0.8 167.6,0.8 166.1,1.5 L3.1,80.2 C1.3,81.1 0.1,82.9 0.1,84.9 L0.1,276 C0.1,278 1.3,279.9 3.1,280.7 L166.1,359.4 C166.8,359.7 167.6,359.9 168.4,359.9 C169.2,359.9 170,359.7 170.7,359.4 L333.7,280.7 C335.5,279.8 336.7,278 336.7,276 L336.7,84.9 C336.7,82.9 335.5,81.1 333.7,80.2 Z M168.4,12.1 L319.3,84.9 L275.6,106 C275.3,105.8 275,105.6 274.7,105.4 L124.8,33.2 L168.4,12.1 Z M112.9,39.1 L263.6,111.8 L232.7,126.7 L82.1,54 L112.9,39.1 Z M238.3,135.7 L267.1,121.8 L267.1,176.9 L238.3,190.8 L238.3,135.7 Z M173.7,346.4 L173.7,166.9 L210.1,149.3 C212.7,148 213.8,144.9 212.5,142.3 C211.2,139.7 208.1,138.6 205.5,139.9 L168.4,157.8 L153.8,150.8 C151.2,149.5 148,150.6 146.8,153.2 C145.5,155.8 146.6,159 149.2,160.2 L163.1,166.9 L163.1,346.3 L10.7,272.8 L10.7,93.3 L126.8,149.4 C127.5,149.8 128.3,149.9 129.1,149.9 C131.1,149.9 132.9,148.8 133.8,146.9 C135.1,144.3 134,141.1 131.4,139.9 L17.6,84.9 L69.8,59.7 L227.8,136 C227.8,136 227.8,136.1 227.9,136.1 L227.9,199.2 C227.9,201 228.8,202.7 230.4,203.7 C231.3,204.2 232.2,204.5 233.2,204.5 C234,204.5 234.8,204.3 235.5,204 L274.8,185 C276.6,184.1 277.8,182.3 277.8,180.3 L277.8,116.8 L326.3,93.4 L326.3,272.8 L173.7,346.4 Z" id="XMLID_602_" fill="#2C3439"></path>
                    <path d="M54.1,252.4 L30.2,240.9 C27.6,239.6 24.4,240.7 23.2,243.3 C22,245.9 23,249.1 25.6,250.3 L49.5,261.8 C50.2,262.2 51,262.3 51.8,262.3 C53.8,262.3 55.6,261.2 56.5,259.3 C57.8,256.8 56.7,253.6 54.1,252.4 Z" id="XMLID_587_" fill="#2C3439"></path>
                    <path d="M76.1,238 L30.2,215.8 C27.6,214.5 24.4,215.6 23.2,218.2 C21.9,220.8 23,224 25.6,225.2 L71.5,247.4 C72.2,247.8 73,247.9 73.8,247.9 C75.8,247.9 77.6,246.8 78.5,244.9 C79.8,242.4 78.7,239.3 76.1,238 Z" id="XMLID_599_" fill="#2C3439"></path>
                </g>
            </g>
        </g>
    </g>
</svg>