<?xml version="1.0" encoding="UTF-8"?>
<svg width="357px" height="351px" viewBox="0 0 357 351" version="1.1" xmlns="http://www.w3.org/2000/svg" xmlns:xlink="http://www.w3.org/1999/xlink">
    <!-- Generator: Sketch 41 (35326) - http://www.bohemiancoding.com/sketch -->
    <title>charger</title>
    <desc>Created with Sketch.</desc>
    <defs></defs>
    <g id="Page-1" stroke="none" stroke-width="1" fill="none" fill-rule="evenodd">
        <g id="charger">
            <g id="Layer_1">
                <g id="XMLID_745_">
                    <g id="XMLID_776_" transform="translate(37.000000, 150.000000)" fill="#2C3439">
                        <path d="M100.8,200.8 C45.5,200.8 0.6,155.9 0.6,100.6 C0.6,45.3 45.5,0.4 100.8,0.4 L100.8,12.9 C52.4,12.9 13.1,52.2 13.1,100.6 C13.1,149 52.4,188.3 100.8,188.3 C149.2,188.3 188.5,149 188.5,100.6 L201,100.6 C200.9,155.9 156.1,200.7 100.8,200.8 L100.8,200.8 Z" id="XMLID_744_"></path>
                        <path d="M100.8,200.8 C60.9,200.8 24.9,177.1 9,140.5 C-6.9,103.9 0.4,61.4 27.6,32.2 C54.8,3 96.7,-7.3 134.3,6 C137.6,7.2 139.3,10.7 138.1,14 C136.9,17.3 133.4,19 130.1,17.8 C88.3,3 41.9,21.7 22.2,61.5 C2.5,101.3 15.5,149.5 52.5,173.9 C89.6,198.3 139,191.2 167.7,157.3 C196.4,123.4 195.3,73.5 165.1,40.9 C162.8,38.4 162.9,34.4 165.4,32.1 C167.9,29.8 171.9,29.9 174.2,32.4 C201.3,61.6 208.5,104.1 192.6,140.6 C176.7,177.1 140.6,200.8 100.8,200.8 Z" id="XMLID_743_"></path>
                    </g>
                    <rect id="XMLID_742_" fill="#F15C22" x="269.3" y="162.8" width="25.1" height="31.3"></rect>
                    <path d="M329.3,31.3 L347.1,31.3 C349.1,31.3 350.7,32.9 350.7,34.9 L350.7,159.2 C350.7,161.2 349.1,162.8 347.1,162.8 L329.3,162.8 C327.3,162.8 325.7,161.2 325.7,159.2 L325.7,34.9 C325.7,32.9 327.3,31.3 329.3,31.3 Z" id="XMLID_741_" fill="#F15C22"></path>
                    <g id="XMLID_740_" transform="translate(210.000000, 29.000000)">
                        <path d="M10.8,2.3 L114.1,2.3 C118.4,2.3 122,5.8 122,10.2 L122,126 C122,130.3 118.5,133.9 114.1,133.9 L10.8,133.9 C6.5,133.9 2.9,130.4 2.9,126 L2.9,10.2 C2.9,5.8 6.5,2.3 10.8,2.3 Z" id="XMLID_746_" fill="#FFFFFF"></path>
                        <path d="M114.1,136 L10.8,136 C5.3,136 0.8,131.5 0.8,126 L0.8,10.2 C0.8,4.7 5.3,0.2 10.8,0.2 L114.1,0.2 C119.6,0.2 124.1,4.7 124.1,10.2 L124.1,126 C124.1,131.5 119.6,136 114.1,136 Z M10.8,4.4 C7.6,4.4 5.1,7 5,10.2 L5,126 C5,129.2 7.6,131.8 10.8,131.8 L114.1,131.8 C117.3,131.8 119.9,129.2 119.9,126 L119.9,10.2 C119.9,7 117.3,4.4 114.1,4.4 L10.8,4.4 L10.8,4.4 Z" id="XMLID_748_" fill="#2C3439"></path>
                    </g>
                    <path d="M221.4,31.3 L267.1,31.3 C271.8,31.3 275.6,35.1 275.6,39.8 L275.6,73 C275.6,77.7 271.8,81.5 267.1,81.5 L221.4,81.5 C216.7,81.5 212.9,77.7 212.9,73 L212.9,39.8 C212.9,35.1 216.7,31.3 221.4,31.3 Z" id="XMLID_739_" stroke="#000000" fill="#FFFFFF"></path>
                    <rect id="XMLID_738_" fill="#F18D26" x="6.3" y="56.4" width="25.1" height="68.9"></rect>
                    <rect id="XMLID_737_" fill="#F18D26" x="31.3" y="68.9" width="18.8" height="43.8"></rect>
                    <g id="XMLID_747_" fill="#2C3439">
                        <path d="M137.8,350.8 C92.8,350.8 56.4,314.3 56.4,269.4 C56.4,224.5 92.9,188 137.8,188 C182.7,188 219.2,224.5 219.2,269.4 C219.2,314.3 182.7,350.7 137.8,350.8 Z M137.8,200.4 C99.8,200.4 68.9,231.2 68.9,269.3 C68.9,307.4 99.7,338.2 137.8,338.2 C175.9,338.2 206.7,307.4 206.7,269.3 C206.6,231.3 175.8,200.5 137.8,200.4 L137.8,200.4 Z" id="XMLID_767_"></path>
                        <path d="M134.4,350.8 C66,350.7 9.7,297 6.4,228.7 L6.3,228.7 L6.3,119 L18.8,119 L18.8,222.6 C18.9,286.4 70.6,338.1 134.4,338.2 C231.9,338.2 275.6,277.3 275.6,217 L275.6,187.9 L288.1,187.9 L288.1,217 C288.1,295.8 224.9,350.8 134.4,350.8 Z" id="XMLID_734_"></path>
                        <path d="M37.6,131.5 L0,131.5 L0,50.1 L37.6,50.1 L37.6,131.5 Z M12.5,119 L25,119 L25,62.6 L12.5,62.6 L12.5,119 Z" id="XMLID_763_"></path>
                        <path d="M56.4,119 L25.1,119 L25.1,62.6 L56.4,62.6 L56.4,119 Z M37.6,106.5 L43.9,106.5 L43.9,75.2 L37.6,75.2 L37.6,106.5 Z" id="XMLID_760_"></path>
                        <path d="M300.6,200.4 L263,200.4 L263,156.6 L300.6,156.6 L300.6,200.4 Z M275.6,187.9 L288.1,187.9 L288.1,169.1 L275.6,169.1 L275.6,187.9 Z" id="XMLID_757_"></path>
                        <path d="M221.4,169.1 C213.3,169.1 206.7,162.5 206.7,154.4 L206.7,39.8 C206.7,31.7 213.3,25.1 221.4,25.1 L342.3,25.1 C350.4,25.1 357,31.7 357,39.8 L357,154.4 C357,162.5 350.4,169.1 342.3,169.1 L221.4,169.1 Z M221.4,37.6 C220.8,37.6 220.3,37.8 219.8,38.2 C219.4,38.6 219.2,39.2 219.2,39.8 L219.2,154.4 C219.2,155 219.4,155.5 219.8,156 C220.2,156.4 220.8,156.6 221.4,156.6 L342.3,156.6 C342.9,156.6 343.4,156.4 343.9,156 C344.3,155.6 344.5,155 344.5,154.4 L344.5,39.8 C344.5,39.2 344.3,38.7 343.9,38.2 C343.5,37.8 342.9,37.6 342.3,37.6 L221.4,37.6 Z" id="XMLID_754_"></path>
                        <path d="M231.7,37.6 C230,37.6 228.4,36.9 227.3,35.8 C226.1,34.6 225.5,33 225.5,31.4 L225.5,6.3 C225.5,2.8 228.3,0 231.8,0 C235.3,0 238.1,2.8 238.1,6.3 L238.1,31.4 C238.1,33.1 237.4,34.7 236.3,35.8 C235,36.9 233.4,37.6 231.7,37.6 L231.7,37.6 Z" id="XMLID_710_"></path>
                        <path d="M256.8,37.6 C255.1,37.6 253.5,36.9 252.4,35.8 C251.2,34.6 250.6,33 250.6,31.4 L250.6,6.3 C250.6,2.8 253.4,0 256.9,0 C260.4,0 263.2,2.8 263.2,6.3 L263.2,31.4 C263.2,33.1 262.5,34.7 261.4,35.8 C260,36.9 258.5,37.6 256.8,37.6 L256.8,37.6 Z" id="XMLID_709_"></path>
                        <path d="M267.1,87.7 L221.4,87.7 C213.3,87.7 206.7,81.1 206.7,73 L206.7,39.8 C206.7,31.7 213.3,25.1 221.4,25.1 L267.1,25.1 C275.2,25.1 281.8,31.7 281.8,39.8 L281.8,73 C281.8,81.1 275.2,87.7 267.1,87.7 Z M221.4,37.6 C220.8,37.6 220.3,37.8 219.8,38.2 C219.4,38.6 219.2,39.2 219.2,39.8 L219.2,73 C219.2,73.6 219.4,74.1 219.8,74.6 C220.2,75 220.8,75.2 221.4,75.2 L267.1,75.2 C267.7,75.2 268.2,75 268.7,74.6 C269.1,74.2 269.3,73.6 269.3,73 L269.3,39.8 C269.3,39.2 269.1,38.7 268.7,38.2 C268.3,37.8 267.7,37.6 267.1,37.6 L221.4,37.6 Z" id="XMLID_749_"></path>
                        <ellipse id="XMLID_705_" cx="190.3" cy="172.2" rx="6.3" ry="6.3"></ellipse>
                    </g>
                </g>
            </g>
        </g>
    </g>
</svg>