<?xml version="1.0" encoding="UTF-8"?>
<svg width="213px" height="360px" viewBox="0 0 213 360" version="1.1" xmlns="http://www.w3.org/2000/svg" xmlns:xlink="http://www.w3.org/1999/xlink">
    <!-- Generator: Sketch 41 (35326) - http://www.bohemiancoding.com/sketch -->
    <title>earphones</title>
    <desc>Created with Sketch.</desc>
    <defs></defs>
    <g id="Page-1" stroke="none" stroke-width="1" fill="none" fill-rule="evenodd">
        <g id="earphones">
            <g id="Layer_1">
                <g id="XMLID_582_">
                    <path d="M7.8,51.7 L7.8,51.9 L7.8,51.7 L7.8,51.7 Z" id="XMLID_580_" fill="#3BB8E3"></path>
                    <path d="M7.8,54.9 L7.8,149.1 C7.8,156.4 13.7,162.4 21.1,162.4 C28.4,162.4 34.4,156.5 34.4,149.1 L34.4,93.9 C19.1,87.2 8.4,72.3 7.8,54.9 Z" id="XMLID_579_" fill="#FFFFFF"></path>
                    <g id="XMLID_597_" transform="translate(7.000000, 8.000000)" fill="#F15C22">
                        <path d="M81.7,23.9 C82.4,26.2 83,28.5 83.5,30.9 C83,28.6 82.4,26.2 81.7,23.9 Z" id="XMLID_578_"></path>
                        <path d="M75.9,80.5 C81.9,69.5 84.9,57.4 84.9,45.3 C84.9,57.5 81.9,69.6 75.9,80.5 Z" id="XMLID_577_"></path>
                        <path d="M52.2,81.4 C60.2,58.1 60.2,32.7 52.2,9.4 L49.3,0.8 L41.3,1.5 C19,3.4 1.8,21.6 0.9,43.7 L0.9,43.9 L0.9,45.4 L0.9,46.9 C1.5,64.3 12.2,79.3 27.5,85.9 C31.8,87.8 36.4,89 41.3,89.4 L57.2,90.7 L49.3,90 L52.2,81.4 Z" id="XMLID_576_"></path>
                        <path d="M84.1,34.4 C84.3,35.6 84.4,36.9 84.6,38.2 C84.4,36.9 84.3,35.6 84.1,34.4 Z" id="XMLID_575_"></path>
                        <path d="M76.1,10.4 C77.3,12.6 78.4,14.8 79.3,17.1 C78.3,14.9 77.2,12.6 76.1,10.4 Z" id="XMLID_574_"></path>
                    </g>
                    <path d="M91.6,46.1 C91.5,44.8 91.3,43.6 91.1,42.3 C90.9,41.1 90.7,40 90.5,38.8 C90,36.4 89.4,34.1 88.7,31.8 C88,29.5 87.2,27.3 86.3,25 C85.3,22.7 84.3,20.5 83.1,18.3 C83.1,18.2 83,18.2 83,18.1 C82.5,17.3 82,16.4 81.4,15.7 C81.1,15.3 80.8,15 80.5,14.6 C76.5,10 70.4,7.5 64.2,8 L56.3,8.7 L59.2,17.3 C67.2,40.6 67.2,66 59.2,89.3 L56.3,97.9 L64.2,98.6 C68.1,98.9 71.8,98.1 75.1,96.3 C78.4,94.5 81.1,91.8 83,88.4 C89,77.4 92,65.3 92,53.2 C91.9,51 91.8,48.6 91.6,46.1 Z" id="XMLID_573_" fill="#FFFFFF"></path>
                    <path d="M121.1,54.9 L121.1,149.1 C121.1,156.4 127,162.4 134.4,162.4 C141.7,162.4 147.7,156.5 147.7,149.1 L147.7,93.9 C132.3,87.2 121.7,72.3 121.1,54.9 Z" id="XMLID_572_" fill="#FFFFFF"></path>
                    <path d="M121.1,51.7 L121.1,51.9 L121.1,51.7 L121.1,51.7 Z" id="XMLID_568_" fill="#3BB8E3"></path>
                    <path d="M147.6,93.9 C151.9,95.8 156.5,97 161.4,97.4 L177.3,98.7 L169.4,98 L172.3,89.4 C180.3,66.1 180.3,40.7 172.3,17.4 L169.4,8.8 L161.4,9.5 C139.1,11.4 121.9,29.6 121,51.7 L121,51.9 L121,53.4 L121,54.9 C121.7,72.3 132.3,87.2 147.6,93.9 Z" id="XMLID_566_" fill="#F15C22"></path>
                    <path d="M172.4,89.4 L169.5,98 L177.4,98.7 C181.3,99 185,98.2 188.3,96.4 C191.6,94.6 194.3,91.9 196.2,88.5 C202.2,77.5 205.2,65.4 205.2,53.3 C205.2,41.2 202.2,29.1 196.2,18.1 C195.7,17.3 195.2,16.4 194.6,15.7 C194.3,15.3 194,15 193.7,14.6 C189.7,10 183.6,7.5 177.4,8 L169.5,8.7 L172.4,17.3 C180.4,40.7 180.4,66.1 172.4,89.4 Z" id="XMLID_565_" fill="#FFFFFF"></path>
                    <path d="M141.4,168.2 C149.1,165.3 154.7,157.9 154.7,149.1 L154.7,103.4 C156.7,103.8 158.8,104.1 160.9,104.3 L176.8,105.6 C177.5,105.7 178.3,105.7 179,105.7 C188.7,105.7 197.7,100.4 202.3,91.8 C208.9,79.7 212.2,66.5 212.2,53.3 C212.2,41.7 209.7,30.1 204.6,19.3 C203.9,17.8 203.1,16.2 202.3,14.7 C201,12.4 199.5,10.3 197.7,8.5 C192.7,3.6 185.9,0.7 178.7,0.8 C178,0.8 177.4,0.8 176.7,0.9 L175.7,1 L168.8,1.6 L168.8,1.6 L160.8,2.3 C148,3.4 136.1,9.2 127.4,18.6 C119.1,27.6 114.4,39.2 113.9,51.4 L113.9,51.6 L113.9,51.8 L113.9,53.3 L113.9,54.8 L113.9,149 C113.9,157.7 119.4,165.2 127.2,168.1 L127.2,333.8 C127.2,340.5 121.8,345.9 115.1,345.9 C108.4,345.9 103,340.5 103,333.8 L103,227.5 C103,213.8 91.8,202.6 78.1,202.6 C64.4,202.6 53.2,213.8 53.2,227.5 L53.2,333.3 C53.2,340.2 47.6,345.9 40.6,345.9 C33.6,345.9 28,340.3 28,333.3 L28,168.2 C35.7,165.3 41.3,157.9 41.3,149.1 L41.3,103.4 C43.3,103.8 45.4,104.1 47.5,104.3 L63.4,105.6 C64.1,105.7 64.9,105.7 65.6,105.7 C75.3,105.7 84.3,100.4 88.9,91.8 C102.1,67.7 102.1,38.9 88.9,14.7 C85.1,7.8 78.5,3 71,1.4 C68.6,0.9 66,0.7 63.5,0.9 L63.3,0.9 L62.3,1 L55.4,1.6 L55.4,1.6 L47.4,2.3 C34.6,3.4 22.7,9.2 14,18.6 C5.7,27.6 1,39.2 0.5,51.4 L0.5,51.6 L0.5,51.8 L0.5,53.3 L0.5,54.8 L0.5,149 C0.5,157.7 6,165.2 13.8,168.1 L13.8,333.3 C13.8,348 25.8,360 40.5,360 C55.2,360 67.2,348 67.2,333.3 L67.2,227.5 C67.2,221.5 72.1,216.7 78,216.7 C84,216.7 88.8,221.6 88.8,227.5 L88.8,333.8 C88.8,348.2 100.5,360 115,360 C129.4,360 141.2,348.3 141.2,333.8 L141.2,168.2 L141.4,168.2 Z M179.8,15.1 C180.1,15.1 180.3,15.1 180.6,15.2 L180.7,15.2 C181.6,15.3 182.4,15.5 183.3,15.8 L183.4,15.8 C183.6,15.9 183.9,16 184.1,16.1 C184.2,16.1 184.2,16.2 184.3,16.2 C184.5,16.3 184.7,16.4 184.9,16.5 C185,16.5 185.1,16.6 185.1,16.6 C185.3,16.7 185.5,16.8 185.6,16.9 C185.7,16.9 185.8,17 185.8,17.1 C186,17.2 186.1,17.3 186.3,17.4 C186.4,17.5 186.5,17.5 186.5,17.6 C186.6,17.7 186.8,17.8 186.9,17.9 C187,18 187.1,18 187.1,18.1 C187.2,18.2 187.4,18.3 187.5,18.5 C187.6,18.6 187.7,18.7 187.7,18.7 C187.8,18.8 187.9,19 188.1,19.1 C188.2,19.2 188.3,19.3 188.3,19.4 C188.4,19.5 188.5,19.7 188.6,19.8 C188.7,19.9 188.7,20 188.8,20.1 C188.9,20.3 189,20.4 189.1,20.6 C189.2,20.7 189.2,20.8 189.3,20.8 C189.4,21 189.6,21.3 189.7,21.5 C189.7,21.5 189.7,21.5 189.7,21.6 C190.5,23.2 191.3,24.7 192,26.3 C200.2,44.5 199.7,65.3 190.6,83.2 C190.3,83.8 190,84.5 189.6,85.1 C189.5,85.4 189.3,85.6 189.1,85.9 C189,86 189,86.1 188.9,86.1 C188.8,86.3 188.7,86.4 188.6,86.6 C188.5,86.7 188.5,86.8 188.4,86.9 C188.3,87 188.2,87.2 188.1,87.3 C188,87.4 187.9,87.5 187.8,87.6 C187.7,87.7 187.6,87.8 187.5,88 C187.4,88.1 187.3,88.2 187.2,88.3 C187.1,88.4 187,88.5 186.9,88.6 C186.8,88.7 186.7,88.8 186.6,88.9 C186.5,89 186.4,89.1 186.2,89.2 C186.1,89.3 186,89.4 185.9,89.5 C185.8,89.6 185.7,89.7 185.5,89.7 C185.3,89.7 185.3,89.9 185.1,89.9 C184.9,89.9 184.9,90 184.7,90.1 C184.6,90.2 184.4,90.2 184.3,90.3 C184.2,90.4 184.1,90.4 183.9,90.5 C183.8,90.6 183.6,90.6 183.5,90.7 C183.4,90.8 183.3,90.8 183.1,90.9 C183,91 182.8,91 182.7,91.1 C182.6,91.1 182.5,91.2 182.3,91.2 C182.1,91.2 182,91.3 181.8,91.3 C181.7,91.3 181.6,91.3 181.5,91.4 C181.2,91.5 180.9,91.6 180.5,91.6 C180.4,91.6 180.2,91.6 180.1,91.7 L179.7,91.7 L179.3,91.7 L178.9,91.7 L178.5,91.7 L178.5,91.7 C186.9,67 186.9,39.8 178.5,15.1 L178.5,15.1 L179,15.1 C179.7,15.1 179.8,15.1 179.8,15.1 Z M15.9,44.6 C19.6,29.5 32.8,17.8 48.8,16.4 L51.4,16.2 L52.6,19.6 C52.7,20 52.9,20.4 53,20.8 C54.2,24.5 58.2,26.5 61.9,25.3 C65.6,24.1 67.6,20.1 66.4,16.4 C66.3,16 66.1,15.5 66,15.1 L66,15.1 L66.5,15.1 L66.8,15.1 C67,15.1 67.3,15.1 67.5,15.2 L67.6,15.2 C68.2,15.3 68.8,15.4 69.3,15.6 L69.3,15.6 C69.6,15.7 69.8,15.8 70.1,15.9 C70.2,15.9 70.2,15.9 70.3,16 C70.5,16.1 70.7,16.2 70.9,16.3 C71,16.3 71.1,16.4 71.1,16.4 C71.3,16.5 71.5,16.6 71.6,16.7 C71.7,16.7 71.8,16.8 71.9,16.8 C72.1,16.9 72.2,17 72.4,17.1 C72.5,17.2 72.6,17.2 72.7,17.3 C72.9,17.4 73,17.5 73.1,17.6 C73.2,17.7 73.3,17.7 73.4,17.8 C73.5,17.9 73.7,18 73.8,18.1 C73.9,18.2 74,18.2 74.1,18.3 C74.2,18.4 74.4,18.5 74.5,18.7 C74.6,18.8 74.7,18.9 74.8,18.9 C74.9,19 75,19.2 75.2,19.3 C75.3,19.4 75.4,19.5 75.4,19.6 C75.5,19.7 75.6,19.9 75.7,20 C75.8,20.1 75.8,20.2 75.9,20.3 C76,20.5 76.1,20.6 76.2,20.8 C76.3,20.9 76.3,21 76.4,21 C76.6,21.2 76.7,21.5 76.9,21.8 C77.2,22.4 77.6,23 77.9,23.7 C78.2,24.3 78.5,24.9 78.8,25.5 C83,34.4 85.1,44 85.1,53.6 C85.1,62.5 83.3,71.3 79.7,79.7 C78.9,81.6 77.9,83.5 76.9,85.4 C76.8,85.7 76.6,85.9 76.4,86.2 C76.3,86.3 76.3,86.4 76.2,86.4 C76.1,86.6 76,86.7 75.9,86.9 C75.8,87 75.8,87.1 75.7,87.2 C75.6,87.3 75.5,87.5 75.4,87.6 C75.3,87.7 75.2,87.8 75.1,87.9 C75,88 74.9,88.1 74.8,88.3 C74.7,88.4 74.6,88.5 74.5,88.6 C74.4,88.7 74.3,88.8 74.2,88.9 C74.1,89 74,89.1 73.9,89.2 C73.8,89.3 73.7,89.4 73.5,89.5 C73.4,89.6 73.3,89.7 73.2,89.8 C73.1,89.9 73,90 72.8,90 C72.7,90.1 72.6,90.2 72.4,90.2 C72.3,90.3 72.2,90.3 72,90.4 C71.9,90.5 71.7,90.5 71.6,90.6 C71.5,90.7 71.4,90.7 71.2,90.8 C71.1,90.9 70.9,90.9 70.8,91 C70.7,91.1 70.6,91.1 70.4,91.2 C70.3,91.3 70.1,91.3 70,91.4 C69.9,91.4 69.8,91.5 69.6,91.5 C69.4,91.5 69.3,91.6 69.1,91.6 C69,91.6 68.9,91.6 68.8,91.7 C68.5,91.8 68.2,91.9 67.8,91.9 C67.7,91.9 67.5,91.9 67.4,92 L67,92 L66.6,92 L66.2,92 L65.8,92 L65.8,92 C68.4,84.5 70.2,76.8 71.2,69 C71.3,68.2 71.4,67.3 71.5,66.5 C71.6,65.9 71.6,65.3 71.7,64.7 C72.1,60.8 69.2,57.4 65.3,57 C61.4,56.6 58,59.5 57.6,63.4 C57.6,63.9 57.5,64.4 57.4,65 C57.3,65.7 57.2,66.5 57.1,67.2 C56.2,74.1 54.6,80.9 52.4,87.5 L51.2,90.9 L48.6,90.7 C46.1,90.5 43.6,90 41.2,89.3 C35.9,87.7 31.1,85 27.1,81.4 C20.7,75.7 16.3,67.8 15,59.1 C14.7,57.4 14.6,55.6 14.6,53.8 C14.9,50.4 15.2,47.5 15.9,44.6 Z M14.9,149.1 L14.9,88.6 C18.6,92.5 22.8,95.7 27.4,98.2 L27.4,149.1 C27.4,152.5 24.6,155.3 21.2,155.3 C17.7,155.4 14.9,152.6 14.9,149.1 Z M140.6,149.1 C140.6,152.5 137.8,155.3 134.4,155.3 C131,155.3 128.2,152.5 128.2,149.1 L128.2,88.6 C131.9,92.5 136.1,95.7 140.7,98.2 L140.7,149.1 L140.6,149.1 Z M129.1,44.6 C132.8,29.5 146,17.8 162,16.4 L164.6,16.2 L165.8,19.6 C173.2,41.3 173.2,65.3 165.8,87.1 L164.6,90.5 L162,90.3 C159.5,90.1 157,89.6 154.6,88.9 C149.3,87.3 144.5,84.6 140.5,81 C134.1,75.3 129.7,67.4 128.4,58.7 C128.1,57 128,55.2 128,53.4 C128.1,50.4 128.4,47.5 129.1,44.6 Z" id="XMLID_584_" fill="#2C3439"></path>
                    <path d="M58.2,45.2 C58.4,45.6 58.6,46 58.8,46.4 C59.1,46.8 59.4,47.1 59.7,47.5 C60,47.8 60.4,48.1 60.8,48.4 C61.2,48.7 61.6,48.9 62,49 C62.4,49.2 62.9,49.3 63.3,49.4 C63.7,49.5 64.2,49.5 64.7,49.5 C65.2,49.5 65.6,49.5 66.1,49.4 C66.5,49.3 67,49.2 67.4,49 C67.8,48.8 68.2,48.6 68.6,48.4 C69,48.1 69.3,47.9 69.7,47.5 C70,47.2 70.3,46.8 70.6,46.4 C70.9,46 71.1,45.6 71.2,45.2 C71.4,44.8 71.5,44.3 71.6,43.9 C71.7,43.4 71.7,43 71.7,42.5 C71.7,42 71.7,41.6 71.6,41.1 C71.5,40.7 71.4,40.2 71.2,39.8 C71,39.4 70.8,39 70.6,38.6 C70.3,38.2 70,37.9 69.7,37.5 C69.4,37.2 69,36.9 68.6,36.6 C68.2,36.3 67.8,36.1 67.4,36 C67,35.8 66.5,35.7 66.1,35.6 C65.2,35.4 64.3,35.4 63.3,35.6 C62.8,35.7 62.4,35.8 62,36 C61.6,36.2 61.2,36.4 60.8,36.6 C60.4,36.9 60.1,37.1 59.7,37.5 C59.4,37.8 59.1,38.2 58.8,38.6 C58.5,39 58.3,39.4 58.2,39.8 C58,40.2 57.9,40.7 57.8,41.1 C57.7,41.6 57.7,42 57.7,42.5 C57.7,43 57.7,43.4 57.8,43.9 C57.9,44.3 58,44.8 58.2,45.2 Z" id="XMLID_559_" fill="#2C3439"></path>
                </g>
            </g>
        </g>
    </g>
</svg>