<?xml version="1.0" encoding="UTF-8"?>
<svg width="153px" height="253px" viewBox="0 0 153 253" version="1.1" xmlns="http://www.w3.org/2000/svg" xmlns:xlink="http://www.w3.org/1999/xlink">
    <!-- Generator: Sketch 41 (35326) - http://www.bohemiancoding.com/sketch -->
    <title>Group 98</title>
    <desc>Created with Sketch.</desc>
    <defs></defs>
    <g id="Page-1" stroke="none" stroke-width="1" fill="none" fill-rule="evenodd">
        <g id="Group-98">
            <g id="not-good">
                <g id="not-goodAsset-2">
                    <g id="Layer_2">
                        <g id="Layer_1-2">
                            <g id="_Group_">
                                <path d="M93.5,121.7 L93.5,153.4 C93.4459987,158.016639 89.7166388,161.745999 85.1,161.8 L84.8,161.8 L82.1,161.6 C80.314791,161.472976 78.5603447,161.068103 76.9,160.4 L75.7,159.9 L75.1,159.6 L72.1,158.2 C67.5846523,155.444157 64.0779163,151.306209 62.1,146.4 C63.2444263,153.534946 67.4438928,159.815887 73.6,163.6 C76.638917,165.540245 80.1063921,166.707514 83.7,167 L86.4,167.2 L86.7,167.2 C91.3166388,167.145999 95.0459987,163.416639 95.1,158.8 L95.1,126.5 C95.0153918,124.783838 94.4620107,123.123695 93.5,121.7 L93.5,121.7 Z" id="_Path_" fill="#CCCCCC"></path>
                                <polyline id="_Path_2" fill="#E6E9ED" points="148.9 227 76.2 237.9 3.5 227 3.5 26.2 76.2 15.3 148.9 26.2"></polyline>
                                <path d="M152.3,230.3 L0,230.3 L0,22.8 L152.3,22.8 M145.5,29.5 L6.8,29.5 L6.8,223.5 L145.5,223.5" id="_Compound_Path_" fill="#2C3439"></path>
                                <g id="_Group_2">
                                    <path d="M148.9,26.1 L3.4,26.1 L3.4,25.7 C3.45475893,13.4068034 13.4068034,3.45475893 25.7,3.4 L126.4,3.4 C138.693197,3.45475893 148.645241,13.4068034 148.7,25.7 L148.9,26.1 L148.9,26.1 Z" id="_Path_3" fill="#ED6C0D"></path>
                                    <path d="M152.3,29.5 L0,29.5 L0,25.8 C0.0548220996,11.5738234 11.5738234,0.0548220996 25.8,0 L126.5,0 C140.726177,0.0548220996 152.245178,11.5738234 152.3,25.8 L152.3,29.5 Z M7,22.8 L145.2,22.8 C143.763963,13.6005913 135.810612,6.83811674 126.5,6.9 L25.8,6.9 C16.4823726,6.87323005 8.52021228,13.6071848 7,22.8 L7,22.8 Z" id="_Compound_Path_2" fill="#2C3439"></path>
                                </g>
                                <g id="_Group_3" transform="translate(0.000000, 223.000000)">
                                    <path d="M148.9,4.2 C148.845241,16.4931966 138.893197,26.4452411 126.6,26.5 L25.8,26.5 C13.5068034,26.4452411 3.55475893,16.4931966 3.5,4.2 L3.5,3.8 L149,3.8 L149,4.2 L148.9,4.2 Z" id="_Path_4" fill="#ED6C0D"></path>
                                    <path d="M126.5,30 L25.8,30 C11.5738234,29.9451779 0.0548220996,18.4261766 0,4.2 L0,0.5 L152.3,0.5 L152.3,4.2 C152.3,11.0425854 149.581794,17.6049164 144.743355,22.443355 C139.904916,27.2817935 133.342585,30 126.5,30 Z M7,7.3 C8.43603748,16.4994087 16.3893881,23.2618833 25.7,23.2 L126.4,23.2 C135.679807,23.177822 143.585948,16.455488 145.1,7.3 L7,7.3 Z" id="_Compound_Path_3" fill="#2C3439"></path>
                                </g>
                                <path d="M76.8,123.3 C72.7,145.9 66.6,166.1 51.7,188.1 C50.3,190.2 52.3,191.6 53.8,189.5 C66.1149649,171.702862 74.5007626,151.488317 78.4,130.2 C82.7,107.2 87.5,86.6 100.7,63.4 C101.9,61.2 99.4,60.7 98.2,62.9 C86.4,83.4 80.5,102.6 76.8,123.3 Z" id="_Path_5" fill="#2C3439"></path>
                                <polygon id="_Path_6" fill="#2C3439" points="4.3 237.9 25.2 213 5 223.5 14.8 213 4.3 218.4 20.5 200.1 8.1 207.7 20 186.6 5.2 207.2"></polygon>
                                <polygon id="_Path_7" fill="#2C3439" points="4.3 144.8 42.3 90.7 14.8 104.3 51.2 39.5 14.8 71.4 29.4 22.2 3.4 61.5"></polygon>
                            </g>
                            <path d="M105.2,19 L46.3,19 C43.6,19 41.4,17.3 41.4,15.1 L41.4,15.1 C41.4,12.9 43.7,11.2 46.3,11.2 L105.2,11.2 C107.9,11.2 110.1,12.9 110.1,15.1 L110.1,15.1 C110,17.4 107.9,19 105.2,19 Z" id="_Path_8" fill="#2C3439"></path>
                        </g>
                    </g>
                </g>
            </g>
        </g>
    </g>
</svg>