<?xml version="1.0" encoding="UTF-8"?>
<svg width="216px" height="260px" viewBox="0 0 216 260" version="1.1" xmlns="http://www.w3.org/2000/svg" xmlns:xlink="http://www.w3.org/1999/xlink">
    <!-- Generator: Sketch 41 (35326) - http://www.bohemiancoding.com/sketch -->
    <title>Group 95</title>
    <desc>Created with Sketch.</desc>
    <defs></defs>
    <g id="Page-1" stroke="none" stroke-width="1" fill="none" fill-rule="evenodd">
        <g id="Group-95">
            <polygon id="_Path_" fill="#E6E9ED" points="153.7 233.1 79 244.3 4.3 233.1 4.3 26.9 79 15.7 153.7 26.9"></polygon>
            <g id="_Group_2" transform="translate(0.000000, 23.000000)" fill="#2C3439">
                <path d="M157.2,213.7 L0.7,213.7 L0.7,0.3 L157.1,0.3 L157.1,213.7 L157.2,213.7 Z M7.7,206.6 L150.2,206.6 L150.2,7.4 L7.7,7.4 L7.7,206.6 Z" id="_Compound_Path_"></path>
            </g>
            <g id="_Group_3">
                <path d="M153.7,26.9 L4.3,26.9 L4.3,26.5 C4.3,13.9 14.7,3.5 27.3,3.5 L130.8,3.5 C143.4,3.5 153.8,13.9 153.8,26.5 L153.8,26.9 L153.7,26.9 Z" id="_Path_2" fill="#ED6C0D"></path>
                <path d="M157.2,30.4 L0.7,30.4 L0.7,26.5 C0.7,11.9 12.7,0 27.3,0 L130.8,0 C145.4,0 157.3,11.9 157.3,26.5 L157.3,30.4 L157.2,30.4 Z M7.9,23.3 L149.9,23.3 C148.4,13.9 140.3,7 130.7,7 L27.3,7 C17.7,7 9.5,13.9 7.9,23.3 Z" id="_Compound_Path_2" fill="#2C3439"></path>
            </g>
            <g id="_Group_4" transform="translate(0.000000, 229.000000)">
                <path d="M153.7,4.5 C153.7,17.1 143.3,27.5 130.7,27.5 L27.3,27.5 C14.7,27.5 4.3,17.1 4.3,4.5 L4.3,4.1 L153.7,4.1 L153.7,4.5 Z" id="_Path_3" fill="#ED6C0D"></path>
                <path d="M130.7,31 L27.3,31 C12.7,31 0.8,19.1 0.8,4.5 L0.8,0.6 L157.2,0.6 L157.2,4.5 C157.2,19.1 145.4,31 130.7,31 L130.7,31 Z M7.9,7.7 C9.4,17.1 17.6,24.1 27.1,24.1 L130.6,24.1 C140.1,24.1 148.3,17.1 149.8,7.7 L7.9,7.7 Z" id="_Compound_Path_3" fill="#2C3439"></path>
            </g>
            <path d="M105.3,19.6 L52.3,19.6 C49.8,19.6 47.8,17.9 47.8,16.1 L47.8,16.1 C47.8,14.1 49.8,12.6 52.3,12.6 L105.5,12.6 C108,12.6 110,14.3 110,16.1 L110,16.1 C109.8,18 107.8,19.6 105.3,19.6 Z" id="_Path_5" fill="#2C3439"></path>
            <g id="Group" transform="translate(25.000000, 34.000000)" stroke="#2C3439" stroke-width="5">
                <path d="M120.5,127 C120.5,127 120.9,119.9 108.5,114.3 L77.7,97.8 C77.7,97.8 72.7,95.9 69.9,98.5 C69.9,98.5 66.9,103.3 67.2,98 L67.2,59.3 C67.2,59.3 64.2,52.7 55.6,51.2 C55.6,51.2 45.4,51.4 43.7,59 L45,144.7 C45,144.7 47.1,151.4 45.3,145.6 L38.8,122.2 C38.8,122.2 36.9,114.9 27.1,118.1 C27.1,118.1 21.1,122.5 23.6,129.4 L35.5,161.7 C35.5,161.7 46,182 51.3,188.4 L51.3,207.7 C51.3,211 50.9,220.6 54.2,220.6 L97.7,220.6 C101,220.6 99.9,211 99.9,207.7 L99.9,194.9 C102.6,193.1 105.7,192.1 106.1,191.6 C106.1,191.6 119,182.7 118.8,162.8 L120.5,127 Z" id="XMLID_4_" fill="#FFCAA3"></path>
                <path d="M58.9,0.9 C29.1,-1.1 3.2,21.5 1.1,51.4 C-0.1,69.4 7.6,86.8 21.9,97.8 C23.9,99.4 26.9,99 28.4,97 C30,95 29.6,92 27.6,90.5 C15.8,81.3 9.4,67 10.3,52.1 C12,27.4 33.4,8.7 58.1,10.4 C70,11.2 81,16.7 88.9,25.6 C96.8,34.6 100.7,46.2 99.8,58.2 C99.3,66.5 96.4,74.5 91.6,81.1 C90.1,83.2 90.5,86.1 92.7,87.6 C94.6,88.8 96.9,88.8 98.5,87.3 C98.8,87 98.9,86.9 99.2,86.5 C105,78.4 108.5,68.7 109.1,58.7 C110.1,44.3 105.4,30.3 95.8,19.4 C86.5,8.4 73.4,1.9 58.9,0.9 Z" id="XMLID_3_" fill="#F28E26"></path>
                <path d="M82.6,61.6 C83.8,61.7 85.1,61.2 86,60.4 C86.9,59.6 87.5,58.5 87.6,57.2 C88.8,39.3 75.3,23.8 57.4,22.6 C48.8,22 40.4,24.8 33.9,30.6 C27.4,36.3 23.5,44.2 22.8,52.8 C22.6,55.4 24.6,57.6 27.1,57.8 C29.7,58 31.9,56 32.1,53.5 C32.5,47.3 35.3,41.7 39.9,37.7 C44.5,33.6 50.5,31.6 56.6,32 C69.3,32.9 78.9,43.9 78.1,56.6 C78,59.2 80,61.4 82.6,61.6 Z" id="XMLID_2_" fill="#F15C22"></path>
            </g>
            <path d="M169.5,101.9 C144,101.9 123.4,122.5 123.4,148 C123.4,173.5 144,194.1 169.5,194.1 C195,194.1 215.6,173.5 215.6,148 C215.6,122.5 195,101.9 169.5,101.9 Z M169.5,185.5 C148.7,185.5 131.9,168.7 131.9,147.9 C131.9,127.1 148.7,110.3 169.5,110.3 C190.3,110.3 207.1,127.1 207.1,147.9 C207.1,168.7 190.2,185.5 169.5,185.5 Z M169.5,122.1 C166.1,122.1 163.8,123.8 163.8,126.6 L163.8,152.1 C163.8,154.9 166.4,156.6 169.5,156.6 C172.6,156.6 175.2,154.9 175.2,152.1 L175.2,126.6 C175.4,123.8 172.8,122.1 169.5,122.1 Z M169.5,162.4 C166.4,162.4 163.8,165 163.8,168.1 C163.8,171.2 166.4,173.8 169.5,173.8 C172.6,173.8 175.2,171.2 175.2,168.1 C175.3,164.9 172.7,162.4 169.5,162.4 Z" id="XMLID_1_" fill="#FC3527"></path>
        </g>
    </g>
</svg>