<?xml version="1.0" encoding="UTF-8"?>
<svg width="253px" height="156px" viewBox="0 0 253 156" version="1.1" xmlns="http://www.w3.org/2000/svg" xmlns:xlink="http://www.w3.org/1999/xlink">
    <!-- Generator: Sketch 41 (35326) - http://www.bohemiancoding.com/sketch -->
    <title>front-camera</title>
    <desc>Created with Sketch.</desc>
    <defs></defs>
    <g id="Page-1" stroke="none" stroke-width="1" fill="none" fill-rule="evenodd">
        <g id="front-camera">
            <g id="Layer_1">
                <path d="M47.7,3.6 L30.9,3.6 C27.2,3.6 24.2,6.5 24.2,10.1 L24.2,16.6 L54.4,16.6 L54.4,10.1 C54.4,6.5 51.4,3.6 47.7,3.6 Z" id="XMLID_1262_" fill="#C9C6CA"></path>
                <g id="XMLID_1250_" transform="translate(24.000000, 3.000000)" fill="#C0BCC1">
                    <path d="M17,0.6 L6.9,0.6 C3.2,0.6 0.2,3.5 0.2,7.1 L0.2,13.6 L10.3,13.6 L10.3,7.1 C10.2,3.5 13.3,0.6 17,0.6 Z" id="XMLID_1254_"></path>
                    <path d="M57.2,0.6 L50.5,0.6 C46.8,0.6 43.8,3.5 43.8,7.1 L43.8,13.6 L64,13.6 L64,7.1 C64,3.5 61,0.6 57.2,0.6 Z" id="XMLID_1252_"></path>
                </g>
                <path d="M74.5,3.6 C70.8,3.6 67.8,6.5 67.8,10.1 L67.8,16.6 L77.9,16.6 L77.9,3.6 L74.5,3.6 L74.5,3.6 Z" id="XMLID_1249_" fill="#AEA8AF"></path>
                <path d="M202.1,152.6 L14.1,152.6 C8.5,152.6 4,148.2 4,142.9 L4,26.3 C4,20.9 8.5,16.6 14.1,16.6 L202.1,16.6 C207.7,16.6 212.2,21 212.2,26.3 L212.2,142.9 C212.2,148.3 207.7,152.6 202.1,152.6 Z" id="XMLID_1242_" fill="#ED6C0D"></path>
                <ellipse id="XMLID_1237_" fill="#F15C22" cx="71.2" cy="84.6" rx="50.4" ry="48.6"></ellipse>
                <ellipse id="XMLID_1236_" fill="#F28E26" cx="71.2" cy="84.6" rx="40.3" ry="38.9"></ellipse>
                <path d="M50.3,61.9 C48.2,61.9 46.3,62.8 45,64.4 C40.4,69.9 37.7,77 37.7,84.6 C37.7,92.2 40.5,99.3 45,104.8 C46.3,106.4 48.2,107.3 50.3,107.3 L92.1,107.3 C94.2,107.3 96.1,106.4 97.4,104.8 C102,99.3 104.7,92.2 104.7,84.6 C104.7,77 101.9,69.9 97.4,64.4 C96.1,62.8 94.2,61.9 92.1,61.9 C92.1,61.9 50.3,61.9 50.3,61.9 Z" id="XMLID_1233_" fill="#E6E9ED"></path>
                <ellipse id="XMLID_1232_" fill="#F15C22" cx="71.2" cy="84.6" rx="10.1" ry="9.7"></ellipse>
                <ellipse id="XMLID_1229_" fill="#FFFFFF" cx="81.2" cy="74.9" rx="6.7" ry="6.5"></ellipse>
                <path d="M14.1,84.6 L14.1,16.6 C8.5,16.5 4,20.9 4,26.3 L4,142.9 C4,148.3 8.5,152.6 14.1,152.6 L202.1,152.6 C207.7,152.6 212.2,148.2 212.2,142.9 L74.5,142.9 C41.2,142.9 14.1,116.8 14.1,84.6 Z" id="XMLID_1226_" fill="#FFFFFF"></path>
                <path d="M202.1,13.5 L91.1,13.5 L91.1,10.1 C91.1,4.9 86.7,0.6 81.2,0.6 L74.5,0.6 C69.1,0.6 64.6,4.9 64.6,10.1 L64.6,13.5 L57.5,13.5 L57.5,10.1 C57.5,4.9 53.1,0.6 47.6,0.6 L30.9,0.6 C25.5,0.6 21,4.9 21,10.1 L21,13.5 L14.1,13.5 C6.8,13.5 0.9,19.2 0.9,26.3 L0.9,142.9 C0.9,149.9 6.8,155.7 14.1,155.7 L202.1,155.7 C209.4,155.7 215.3,150 215.3,142.9 L215.3,26.3 C215.3,19.2 209.4,13.5 202.1,13.5 Z M71,10.1 C71,8.2 72.6,6.7 74.6,6.7 L81.3,6.7 C83.3,6.7 84.9,8.2 84.9,10.1 L84.9,13.5 L71,13.5 L71,10.1 L71,10.1 Z M27.3,10.1 C27.3,8.2 28.9,6.7 30.9,6.7 L47.7,6.7 C49.7,6.7 51.3,8.2 51.3,10.1 L51.3,13.5 L27.3,13.5 C27.3,13.5 27.3,10.1 27.3,10.1 Z M209,142.9 C209,146.6 205.9,149.6 202.1,149.6 L14.1,149.6 C10.3,149.6 7.2,146.6 7.2,142.9 L7.2,26.3 C7.2,22.6 10.3,19.6 14.1,19.6 L202.1,19.6 C205.9,19.6 209,22.6 209,26.3 L209,142.9 L209,142.9 Z" id="XMLID_1206_" fill="#2C3439"></path>
                <path d="M50.3,110.3 L92.1,110.3 C95.1,110.3 98,109 99.9,106.7 C105.2,100.4 107.9,92.7 107.9,84.6 C107.9,76.5 105.1,68.8 99.9,62.5 C98,60.2 95.2,58.9 92.1,58.9 L50.3,58.9 C47.3,58.9 44.4,60.2 42.5,62.5 C37.2,68.8 34.5,76.5 34.5,84.6 C34.5,92.7 37.3,100.4 42.5,106.7 C44.4,109 47.2,110.3 50.3,110.3 Z M47.4,66.3 C48.1,65.4 49.1,65 50.3,65 L92.1,65 C93.2,65 94.2,65.5 95,66.3 C99.4,71.6 101.7,77.9 101.7,84.6 C101.7,91.3 99.4,97.7 95,102.9 C94.3,103.8 93.3,104.2 92.1,104.2 L50.3,104.2 C49.2,104.2 48.2,103.7 47.4,102.9 C43,97.6 40.7,91.3 40.7,84.6 C40.7,77.9 43,71.5 47.4,66.3 Z" id="XMLID_1195_" fill="#2C3439"></path>
                <path d="M71.2,97.3 C78.5,97.3 84.4,91.6 84.4,84.5 C84.4,77.5 78.5,71.7 71.2,71.7 C63.9,71.7 58,77.4 58,84.5 C58,91.6 63.9,97.3 71.2,97.3 Z M71.2,77.9 C75,77.9 78.1,80.9 78.1,84.6 C78.1,88.3 75,91.3 71.2,91.3 C67.4,91.3 64.3,88.3 64.3,84.6 C64.3,80.9 67.4,77.9 71.2,77.9 Z" id="XMLID_1181_" fill="#2C3439"></path>
                <path d="M199.1,29.8 C169.8,29.8 146.1,53.5 146.1,82.8 C146.1,112.1 169.8,135.8 199.1,135.8 C228.4,135.8 252.1,112.1 252.1,82.8 C252.1,53.5 228.4,29.8 199.1,29.8 Z M199.1,126 C175.2,126 155.9,106.7 155.9,82.8 C155.9,58.9 175.2,39.6 199.1,39.6 C223,39.6 242.3,58.9 242.3,82.8 C242.3,106.7 222.9,126 199.1,126 Z M199.1,53 C195.2,53 192.5,55 192.5,58.2 L192.5,87.5 C192.5,90.7 195.5,92.7 199.1,92.7 C202.7,92.7 205.7,90.7 205.7,87.5 L205.7,58.2 C205.9,55 202.9,53 199.1,53 Z M199.1,99.4 C195.5,99.4 192.5,102.4 192.5,106 C192.5,109.6 195.5,112.6 199.1,112.6 C202.7,112.6 205.7,109.6 205.7,106 C205.7,102.3 202.7,99.4 199.1,99.4 Z" id="XMLID_31_" fill="#FC3527"></path>
                <path d="M106.1,45.2 L105.4,44 C105.3,43.9 105.2,43.7 105.1,43.6 L95.1,27.5 C93.5,24.9 91.1,25 89.8,27.7 L86.6,34.1 C80.5,32.4 74.2,31.7 67.7,32 C54.5,32.8 42,38.3 32.7,47.3 C23.3,56.4 17.7,68.5 16.9,81.3 C16.1,94 20,106.5 28,116.5 C28.7,117.5 30,118.1 31.3,118.1 C32.2,118.1 33,117.8 33.8,117.2 C34.7,116.6 35.2,115.7 35.4,114.6 C35.6,113.6 35.3,112.5 34.6,111.6 C20.5,93.8 22.2,68.6 38.5,53 C50.3,41.5 67.4,37.5 82.9,41.4 L80,47.1 C78.6,49.8 79.9,51.9 83,51.6 L103.6,50.2 C106.5,50 107.7,47.8 106.1,45.2 Z" id="Shape" fill="#2C3439"></path>
                <path d="M114.4,52.6 C113,50.9 110.4,50.6 108.7,51.9 C107.8,52.5 107.3,53.5 107.1,54.5 C106.9,55.5 107.2,56.6 107.9,57.5 C121.9,75.2 120.2,100.3 103.9,116 C91.9,127.7 74.4,131.7 58.7,127.4 L61.6,121.8 C63,119.1 61.7,117.1 58.7,117.3 L37,118.9 C34.1,119.1 32.9,121.3 34.7,123.8 L46.4,140.8 C48.1,143.2 50.6,143.1 52,140.4 L55,134.7 C60.3,136.3 65.8,137.1 71.3,137.1 L74.7,137.1 C87.9,136.3 100.4,130.8 109.7,121.8 C119.1,112.7 124.7,100.6 125.5,87.8 C126.3,75.1 122.4,62.6 114.4,52.6 Z" id="Shape" fill="#2C3439"></path>
            </g>
        </g>
    </g>
</svg>