<?xml version="1.0" encoding="UTF-8"?>
<svg width="198px" height="254px" viewBox="0 0 198 254" version="1.1" xmlns="http://www.w3.org/2000/svg" xmlns:xlink="http://www.w3.org/1999/xlink">
    <!-- Generator: Sketch 41 (35326) - http://www.bohemiancoding.com/sketch -->
    <title>Group 97</title>
    <desc>Created with Sketch.</desc>
    <defs></defs>
    <g id="Page-1" stroke="none" stroke-width="1" fill="none" fill-rule="evenodd">
        <g id="Group-97">
            <g id="good">
                <g id="front-camera-Asset-1">
                    <g id="Layer_2">
                        <g id="Layer_1-2">
                            <path d="M93.7,121.8 L93.7,153.6 C93.6459987,158.216639 89.9166388,161.945999 85.3,162 L82.3,162 C80.4936,161.801942 78.7155387,161.399362 77,160.8 L75.7,160.3 L75.1,160 C74.0844224,159.600837 73.1126337,159.098188 72.2,158.5 C67.6749016,155.72819 64.1402866,151.59864 62.1,146.7 C63.7374515,157.700574 72.6342125,166.185448 83.7,167.3 L86.7,167.3 C91.3166388,167.245999 95.0459987,163.516639 95.1,158.9 L95.1,126.5 C95.0993805,124.830661 94.6129327,123.197586 93.7,121.8 Z" id="_Path_" fill="#CCCCCC"></path>
                            <polygon id="_Path_2" fill="#E6E9ED" points="149.2 227.4 76.3 238.4 3.4 227.4 3.4 26.2 76.3 15.2 149.2 26.2"></polygon>
                            <g id="_Group_" transform="translate(0.000000, 22.000000)" fill="#2C3439">
                                <path d="M152.6,208.8 L0,208.8 L0,0.8 L152.6,0.8 L152.6,208.8 Z M6.8,202 L145.8,202 L145.8,7.5 L6.8,7.5 L6.8,202 Z" id="_Compound_Path_"></path>
                            </g>
                            <g id="_Group_2">
                                <path d="M149.2,26.1 L3.4,26.1 L3.4,25.8 C3.50860465,13.4740874 13.4740874,3.50860465 25.8,3.4 L126.8,3.4 C139.125913,3.50860465 149.091395,13.4740874 149.2,25.8 L149.2,26.1 Z" id="_Path_3" fill="#ED6C0D"></path>
                                <path d="M152.6,29.5 L0,29.5 L0,25.8 C0.10884476,11.5963827 11.5963827,0.10884476 25.8,0 L126.8,0 C141.003617,0.10884476 152.491155,11.5963827 152.6,25.8 L152.6,29.5 Z M7,22.7 L145.5,22.7 C143.985003,13.4892554 136.03448,6.72285234 126.7,6.7 L25.7,6.7 C16.448525,6.89101864 8.6197663,13.5894218 7,22.7 L7,22.7 Z" id="_Compound_Path_2" fill="#2C3439"></path>
                            </g>
                            <g id="_Group_3" transform="translate(0.000000, 224.000000)">
                                <path d="M149.2,3.7 C149.091395,16.0259126 139.125913,25.9913953 126.8,26.1 L25.8,26.1 C13.4740874,25.9913953 3.50860465,16.0259126 3.4,3.7 L3.4,3.4 L149.2,3.4 L149.2,3.7 Z" id="_Path_4" fill="#ED6C0D"></path>
                                <path d="M126.8,29.6 L25.8,29.6 C11.5963827,29.4911552 0.10884476,18.0036173 0,3.8 L0,0.1 L152.6,0.1 L152.6,3.8 C152.491155,18.0036173 141.003617,29.4911552 126.8,29.6 L126.8,29.6 Z M7,6.8 C8.51499681,16.0107446 16.4655205,22.7771477 25.8,22.8 L126.8,22.8 C136.13448,22.7771477 144.085003,16.0107446 145.6,6.8 L7,6.8 Z" id="_Compound_Path_3" fill="#2C3439"></path>
                            </g>
                            <path d="M104.9,18.9 L47.6,18.9 C45,18.9 42.8,17.2 42.8,15.1 L42.8,15.1 C42.8,13 45,11.3 47.6,11.3 L104.9,11.3 C107.5,11.3 109.7,13 109.7,15.1 L109.7,15.1 C109.7,17.2 107.5,18.9 104.9,18.9 Z" id="_Path_5" fill="#2C3439"></path>
                        </g>
                    </g>
                </g>
            </g>
            <polygon id="Star" fill="#ED6C0D" points="148.454939 200 117.890106 215.45085 123.727469 182.725425 99 159.54915 133.172522 154.774575 148.454939 125 163.737355 154.774575 197.909878 159.54915 173.182408 182.725425 179.019772 215.45085"></polygon>
        </g>
    </g>
</svg>