<?xml version="1.0"?>
<svg xmlns="http://www.w3.org/2000/svg" xmlns:xlink="http://www.w3.org/1999/xlink" version="1.1" id="Capa_1" x="0px" y="0px" viewBox="0 0 512 512" style="enable-background:new 0 0 512 512;" xml:space="preserve" width="512px" height="512px" class=""><g><path style="fill:#EFEFEF;" d="M448.603,197.463c-4.869,0-392.719,0-385.21,0c-11.774,0-21.409,9.634-21.409,21.409  c0,22.715,0,258.538,0,255.141c0,11.775,9.634,21.409,21.409,21.409c35.37,0,392.876,0,385.21,0  c11.774,0,21.409-9.634,21.409-21.409c0-0.161,0-5.269,0-5.011c0-21.232,0-253.403,0-250.13  C470.012,207.097,460.378,197.463,448.603,197.463z" data-original="#EFEFEF" class=""/><path style="fill:#DDDDDD;" d="M66.699,474.014c0-15.783,0-261.177,0-255.141c0-11.775,9.634-21.409,21.409-21.409  c-0.818,0-26.106,0-24.715,0c-11.774,0-21.409,9.634-21.409,21.409c0,22.715,0,258.538,0,255.141  c0,11.775,9.634,21.409,21.409,21.409c4.638,0,17.832,0,24.715,0C76.333,495.423,66.699,485.788,66.699,474.014z" data-original="#DDDDDD"/><path style="fill:#EFEFEF;" d="M173.362,237.435L173.362,237.435c-19.765,0-70.044,0-99.163,0c0,13.56,0,106.248,0,121.175  c13.617,0,118.394,0,132.217,0h33.054l0,0h33.054l0,0h33.054h33.054l0,0h33.054l0,0h33.054l0,0h33.054c0-13.577,0-106.098,0-121.175  C419.756,237.435,186.571,237.435,173.362,237.435z" data-original="#EFEFEF" class=""/><path style="fill:#DDDDDD;" d="M99.7,237.435h-2.318l0,0c-4.086,0-7.528,0-11.591,0l0,0c-2.494,0-4.47,0-6.955,0l0,0h-2.318l0,0  h-2.318l0,0c0,13.56,0,106.248,0,121.175c9.048,0,16.45,0,25.501,0C99.7,345.033,99.7,252.512,99.7,237.435L99.7,237.435z" data-original="#DDDDDD"/><path style="fill:#EFEFEF;" d="M498.467,19.447c-6.507-4.48,19.099-1.605-476.786-2.386c-2.89,0-5.773,0.747-8.153,2.386  c-4.795,3.302-6.904,9.045-5.686,14.443L42.35,186.71c1.42,6.288,7.006,10.753,13.453,10.753h52.334l0,0h295.724l0,0h52.334  c6.446,0,12.033-4.465,13.453-10.753l34.507-152.82C505.373,28.492,503.264,22.749,498.467,19.447z" data-original="#EFEFEF" class=""/><path style="fill:#DDDDDD;" d="M70.685,186.71L36.176,33.89c-1.855-8.218,4.062-16.829,13.84-16.829  c-26.367,0.577-30.813-1.523-36.488,2.386c-4.795,3.302-6.904,9.045-5.686,14.443l34.507,152.82  c1.42,6.288,7.006,10.753,13.453,10.753h28.334C77.69,197.463,72.105,192.998,70.685,186.71z" data-original="#DDDDDD"/><path style="fill:#666666;" d="M393.436,189.334h-26.14H144.7h-26.14c-6.592,0-11.935,5.344-11.935,11.935  c0,6.592,5.343,11.935,11.935,11.935h26.14c10.646,0,237.731,0,248.736,0c6.592,0,11.935-5.343,11.935-11.935  C405.373,194.677,400.028,189.334,393.436,189.334z" data-original="#666666"/><path style="fill:#535454;" d="M136.626,201.27c0-6.592,5.343-11.935,11.935-11.935H144.7h-26.14  c-6.592,0-11.935,5.344-11.935,11.935c0,6.592,5.343,11.935,11.935,11.935h26.14h3.861  C141.969,213.205,136.626,207.862,136.626,201.27z" data-original="#535454" class=""/><path style="fill:#CCCCCC;" d="M189.705,382.645c-2.806,0-5.081,2.275-5.081,5.081V447.2c0,2.806,2.275,5.081,5.081,5.081  c8.616,0,139.046,0,132.587,0c2.806,0,5.081-2.275,5.081-5.081v-59.473c0-2.806-2.275-5.081-5.081-5.081  C313.676,382.645,183.246,382.645,189.705,382.645z" data-original="#CCCCCC" class=""/><path style="fill:#BABABA;" d="M214.625,447.2v-59.473c0-2.806,2.275-5.081,5.081-5.081c-13.639,0-21.854,0-30.001,0  c-2.806,0-5.081,2.275-5.081,5.081V447.2c0,2.806,2.275,5.081,5.081,5.081c8.188,0,16.298,0,30.001,0  C216.9,452.281,214.625,450.006,214.625,447.2z" data-original="#BABABA" class=""/><path style="fill:#F4CFA4" d="M450.769,145.083l21.437-94.934c0.637-2.822-1.508-5.506-4.401-5.506H44.191  c-2.893,0-5.038,2.684-4.401,5.506l21.437,94.934c0.465,2.057,2.292,3.518,4.401,3.518h380.741  C448.477,148.601,450.305,147.14,450.769,145.083z" data-original="#A4D9F4" class="" data-old_color="#A4D9F4"/><path style="fill:#E8B17C" d="M91.228,145.083L69.791,50.149c-0.637-2.822,1.508-5.506,4.401-5.506H44.191  c-2.893,0-5.038,2.684-4.401,5.506l21.437,94.934c0.464,2.057,2.292,3.518,4.401,3.518h30.001  C93.52,148.601,91.693,147.14,91.228,145.083z" data-original="#7CC9E8" class="" data-old_color="#7CC9E8"/><path style="fill:#E8C770" d="M39.79,50.149l5.163,22.866h422.09l5.163-22.866c0.637-2.822-1.508-5.506-4.401-5.506H44.191  C41.299,44.643,39.153,47.327,39.79,50.149z" data-original="#70B5E8" class="" data-old_color="#70B5E8"/><path style="fill:#D88152" d="M39.79,50.149c1.163,5.15,3.841,17.011,5.163,22.866h30.001l-5.163-22.866  c-0.637-2.822,1.508-5.506,4.401-5.506c-30.925,0.165-30.305-0.374-31.999,0.463C40.4,45.994,39.313,48.033,39.79,50.149z" data-original="#52A5D8" class="active-path" data-old_color="#52A5D8"/><path style="fill:#CCCCCC;" d="M305.579,495.423v-8.473c0-6.6-5.4-12-12-12h-75.162c-6.6,0-12,5.4-12,12v8.473H305.579z" data-original="#CCCCCC" class=""/><path style="fill:#BABABA;" d="M248.418,474.948h-30.001c-6.6,0-12,5.4-12,12v8.473h30.001v-8.473  C236.418,480.348,241.818,474.948,248.418,474.948z" data-original="#BABABA" class=""/><path d="M476.963,188.262l34.507-152.82c1.93-8.542-1.505-17.285-8.749-22.273h-0.001c-10.153-6.988,10.889-2.387-481.038-3.708  c-14.677,0-24.059,13.122-21.155,25.981l34.507,152.82c1.029,4.559,3.448,8.462,6.741,11.345c-4.531,5.105-7.29,11.817-7.29,19.165  v250.191c0,18.671,15.189,33.859,33.92,33.859h21.348c4.143,0,7.5-3.357,7.5-7.5c0-4.142-3.357-7.5-7.5-7.5H68.343  c-10.398,0-18.858-8.46-18.858-18.92v-250.13c0-7.669,6.238-13.909,13.908-13.909H99.2c1.099,10.682,9.835,17.742,19.36,17.742  c10.474,0,263.731,0,274.876,0c9.54,0,18.29-7.092,19.359-17.742h35.807c7.669,0,13.909,6.239,13.909,13.909v25.355  c0,4.143,3.357,7.5,7.5,7.5c4.143,0,7.5-3.357,7.5-7.5v-25.355c0-7.347-2.759-14.059-7.29-19.165  C473.514,196.725,475.934,192.821,476.963,188.262z M397.865,203.238c-0.039,2.559-2.421,4.367-4.859,4.367H118.991  c-2.317,0-4.701-1.566-4.861-4.484c0.027-2.426,2.043-4.386,4.43-4.386c187.495,0.023,274.976-0.044,275.661,0.079  C397.894,199.482,397.918,203.401,397.865,203.238z M462.331,184.957c-0.652,2.889-3.176,4.905-6.137,4.905  c-10.111,0-38.456,0-48.599,0c-3.487-3.709-8.648-6.129-14.159-6.129H118.56c-5.507,0-10.643,2.39-14.159,6.129H63.393h-7.59  c-2.961,0-5.484-2.017-6.137-4.905L15.159,32.138c-0.805-3.565,1.581-7.676,6.523-7.676c497.798,0.399,469.587-0.962,472.533,1.064  c2.164,1.491,3.193,4.086,2.623,6.612L462.331,184.957z" data-original="#000000" class="" style="fill:#000000"/><path d="M428.641,366.01c9.185,0,16.658-7.473,16.658-16.658v-16.317c0-12.352,0-80.166,0-88.739  c0-7.975-6.487-14.463-14.463-14.463c-33.95,0-313.05,0-348.207,0c-8.783,0-15.93,7.146-15.93,15.93v15.865v23.803v23.802v23.803  v18.429c0,8.02,6.525,14.547,14.547,14.547C102.14,366.01,411.116,366.01,428.641,366.01z M364.188,351.01h-18.054v-10.474h18.054  V351.01z M364.188,325.536h-18.054v-8.802c6.314,0,11.74,0,18.054,0V325.536z M397.242,351.01h-18.054v-10.474h18.054V351.01z   M430.298,349.353c0,0.914-0.743,1.657-1.657,1.657h-16.398v-10.474h18.055L430.298,349.353L430.298,349.353z M430.298,325.536  c-16.267,0-34.841,0-51.108,0v-8.802h9.026h42.082L430.298,325.536L430.298,325.536z M430.298,301.733h-34.581v-8.801h34.581  L430.298,301.733L430.298,301.733z M412.243,244.834h18.055v9.293h-18.055V244.834z M379.189,244.834h18.054v9.293h-18.054V244.834z   M379.189,269.128c16.268,0,34.841,0,51.108,0v8.802c-12.903,0-46.251,0-51.108,0V269.128z M380.716,292.931v8.801  c-6.314,0-11.74,0-18.054,0v-8.801C368.976,292.931,374.401,292.931,380.716,292.931z M346.135,244.834h18.054v9.293h-18.054  V244.834z M346.135,269.128h18.054v8.802c-6.314,0-11.739,0-18.054,0V269.128z M347.661,292.931v8.801c-6.314,0-11.74,0-18.054,0  v-8.801C335.922,292.931,341.347,292.931,347.661,292.931z M313.08,244.834h18.055v9.293H313.08L313.08,244.834L313.08,244.834z   M313.08,269.128h18.055v8.802c-6.314,0-11.74,0-18.055,0L313.08,269.128L313.08,269.128z M314.607,292.931v8.801  c-6.314,0-11.74,0-18.055,0v-8.801C302.867,292.931,308.293,292.931,314.607,292.931z M298.079,316.733v8.802h-18.054v-8.802  C286.34,316.733,291.765,316.733,298.079,316.733z M280.025,244.834h18.054v9.293h-18.054V244.834z M280.025,269.128h18.054v8.802  c-6.314,0-11.74,0-18.054,0V269.128z M281.552,292.931v8.801h-9.026H263.5v-8.801h9.026H281.552z M265.025,316.733v8.802h-18.054  v-8.802C253.285,316.733,258.711,316.733,265.025,316.733z M246.971,244.834h18.054v9.293h-18.054L246.971,244.834L246.971,244.834z   M246.971,269.128h18.054v8.802c-6.314,0-11.739,0-18.054,0L246.971,269.128L246.971,269.128z M248.498,292.931v8.801  c-6.314,0-11.739,0-18.054,0v-8.801C236.759,292.931,242.184,292.931,248.498,292.931z M231.97,316.733v8.802h-18.054v-8.802  C220.231,316.733,225.657,316.733,231.97,316.733z M213.918,244.834h18.054v9.293h-18.054V244.834z M213.918,269.128h18.054v8.802  c-6.314,0-11.739,0-18.054,0V269.128z M215.444,292.931v8.801c-6.314,0-11.74,0-18.055,0v-8.801h9.027H215.444z M198.917,316.733  v8.802h-18.055v-8.802C187.177,316.733,192.603,316.733,198.917,316.733z M180.862,244.834h18.055v9.293h-18.055V244.834z   M180.862,269.128h18.055v8.802c-6.314,0-11.74,0-18.055,0V269.128z M147.808,244.834h18.054v9.293h-18.054V244.834z   M147.808,269.128h18.054v8.802c-6.314,0-11.739,0-18.054,0V269.128z M114.755,244.834h18.054v9.293h-18.054V244.834z   M114.755,269.128h18.054v8.802c-6.314,0-11.739,0-18.054,0C114.755,277.931,114.755,269.128,114.755,269.128z M81.699,245.763  c0-0.512,0.417-0.929,0.929-0.929h17.126v9.293H81.699V245.763z M81.699,269.128h18.055v8.802H81.699V269.128z M81.699,292.931  h25.555h9.026v8.801H81.699V292.931z M99.754,351.01H81.699v-10.474h18.055V351.01z M132.807,351.01h-18.053v-10.474h18.054  L132.807,351.01L132.807,351.01z M132.807,325.536h-25.553H81.699v-8.802h42.082h9.026V325.536z M131.281,301.733v-8.801h9.026  h9.026v8.801h-9.026H131.281z M165.862,351.01h-18.054v-10.474h18.054V351.01z M165.862,325.536h-18.054v-8.802h9.026h9.026  L165.862,325.536L165.862,325.536z M164.336,301.733v-8.801c6.314,0,11.739,0,18.054,0v8.801  C176.075,301.733,170.649,301.733,164.336,301.733z M331.135,351.01H180.862v-10.474c26.703,0,110.418,0,150.272,0V351.01z   M331.135,325.536H313.08v-8.802c6.314,0,11.74,0,18.055,0L331.135,325.536L331.135,325.536z" data-original="#000000" class="" style="fill:#000000"/><path d="M191.322,375.045c-7.829,0-14.199,6.369-14.199,14.199v56.239c0,7.828,6.369,14.198,14.199,14.198h129.353  c7.829,0,14.199-6.369,14.199-14.198v-56.239c0-7.829-6.369-14.199-14.199-14.199H191.322z M319.873,444.68H192.124v-54.635h127.749  V444.68z" data-original="#000000" class="" style="fill:#000000"/><path d="M305.579,162.281h-99.162c-4.143,0-7.5,3.357-7.5,7.5s3.357,7.5,7.5,7.5h99.162c4.143,0,7.5-3.357,7.5-7.5  S309.723,162.281,305.579,162.281z" data-original="#000000" class="" style="fill:#000000"/><path d="M467.806,37.043H44.191c-7.711,0-13.414,7.154-11.716,14.659l21.436,94.934c1.245,5.515,6.064,9.366,11.717,9.366h380.741  c5.653,0,10.472-3.852,11.717-9.366l21.437-94.933C481.223,44.182,475.501,37.043,467.806,37.043z M461.048,65.414H124.755  c-4.143,0-7.5,3.357-7.5,7.5c0,4.143,3.357,7.5,7.5,7.5h332.907l-13.682,60.586H68.017L54.336,80.415h35.417  c4.143,0,7.5-3.357,7.5-7.5c0-4.143-3.357-7.5-7.5-7.5H50.949l-3.02-13.371h416.138L461.048,65.414z" data-original="#000000" class="" style="fill:#000000"/><path d="M470.012,271.628c-4.143,0-7.5,3.357-7.5,7.5v189.834c0,10.398-8.459,18.859-18.92,18.859H313.08v-0.974  c0-10.752-8.748-19.501-19.501-19.501h-75.161c-10.752,0-19.501,8.748-19.501,19.501v0.974h-74.162c-4.143,0-7.5,3.358-7.5,7.5  c0,4.143,3.357,7.5,7.5,7.5c17.42,0,301.482,0,318.899,0c18.67,0,33.858-15.189,33.858-33.92V279.129  C477.513,274.987,474.154,271.628,470.012,271.628z M298.079,487.822h-84.161v-0.974c0-2.439,2.061-4.5,4.5-4.5h75.161  c2.439,0,4.5,2.061,4.5,4.5V487.822z" data-original="#000000" class="" style="fill:#000000"/></g> </svg>
