<?xml version="1.0" encoding="UTF-8"?>
<svg width="212px" height="260px" viewBox="0 0 212 260" version="1.1" xmlns="http://www.w3.org/2000/svg" xmlns:xlink="http://www.w3.org/1999/xlink">
    <!-- Generator: Sketch 41 (35326) - http://www.bohemiancoding.com/sketch -->
    <title>Group 100</title>
    <desc>Created with Sketch.</desc>
    <defs></defs>
    <g id="Page-1" stroke="none" stroke-width="1" fill="none" fill-rule="evenodd">
        <g id="Group-100">
            <g id="glass-broken">
                <g id="Layer_1">
                    <g id="Group">
                        <polygon id="_Path_" fill="#E6E9ED" points="207.7 233.1 133 244.3 58.3 233.1 58.3 26.9 133 15.7 207.7 26.9"></polygon>
                        <g id="_Group_2" transform="translate(54.000000, 23.000000)" fill="#2C3439">
                            <path d="M157.2,213.7 L0.7,213.7 L0.7,0.3 L157.1,0.3 L157.1,213.7 L157.2,213.7 L157.2,213.7 Z M7.7,206.6 L150.2,206.6 L150.2,7.4 L7.7,7.4 L7.7,206.6 Z" id="_Compound_Path_"></path>
                        </g>
                        <g id="_Group_3" transform="translate(54.000000, 0.000000)">
                            <path d="M153.7,26.9 L4.3,26.9 L4.3,26.5 C4.3,13.9 14.7,3.5 27.3,3.5 L130.8,3.5 C143.4,3.5 153.8,13.9 153.8,26.5 L153.8,26.9 L153.7,26.9 Z" id="_Path_2" fill="#ED6C0D"></path>
                            <path d="M157.2,30.4 L0.7,30.4 L0.7,26.5 C0.7,11.9 12.7,0 27.3,0 L130.8,0 C145.4,0 157.3,11.9 157.3,26.5 L157.3,30.4 L157.2,30.4 Z M7.9,23.3 L149.9,23.3 C148.4,13.9 140.3,7 130.7,7 L27.3,7 C17.7,7 9.5,13.9 7.9,23.3 Z" id="_Compound_Path_2" fill="#2C3439"></path>
                        </g>
                        <g id="_Group_4" transform="translate(54.000000, 229.000000)">
                            <path d="M153.7,4.5 C153.7,17.1 143.3,27.5 130.7,27.5 L27.3,27.5 C14.7,27.5 4.3,17.1 4.3,4.5 L4.3,4.1 L153.7,4.1 L153.7,4.5 L153.7,4.5 Z" id="_Path_3" fill="#ED6C0D"></path>
                            <path d="M130.7,31 L27.3,31 C12.7,31 0.8,19.1 0.8,4.5 L0.8,0.6 L157.2,0.6 L157.2,4.5 C157.2,19.1 145.4,31 130.7,31 L130.7,31 Z M7.9,7.7 C9.4,17.1 17.6,24.1 27.1,24.1 L130.6,24.1 C140.1,24.1 148.3,17.1 149.8,7.7 L7.9,7.7 Z" id="_Compound_Path_3" fill="#2C3439"></path>
                        </g>
                        <path d="M159.3,19.6 L106.3,19.6 C103.8,19.6 101.8,17.9 101.8,16.1 L101.8,16.1 C101.8,14.1 103.8,12.6 106.3,12.6 L159.5,12.6 C162,12.6 164,14.3 164,16.1 L164,16.1 C163.8,18 161.8,19.6 159.3,19.6 Z" id="_Path_5" fill="#2C3439"></path>
                        <path d="M46.1,118 C20.6,118 0,138.6 0,164.1 C0,189.6 20.6,210.2 46.1,210.2 C71.6,210.2 92.2,189.6 92.2,164.1 C92.2,138.6 71.6,118 46.1,118 Z M46.1,201.6 C25.3,201.6 8.5,184.8 8.5,164 C8.5,143.2 25.3,126.4 46.1,126.4 C66.9,126.4 83.7,143.2 83.7,164 C83.7,184.8 66.8,201.6 46.1,201.6 Z M46.1,138.2 C42.7,138.2 40.4,139.9 40.4,142.7 L40.4,168.2 C40.4,171 43,172.7 46.1,172.7 C49.2,172.7 51.8,171 51.8,168.2 L51.8,142.7 C52,139.9 49.4,138.2 46.1,138.2 Z M46.1,178.5 C43,178.5 40.4,181.1 40.4,184.2 C40.4,187.3 43,189.9 46.1,189.9 C49.2,189.9 51.8,187.3 51.8,184.2 C51.9,181 49.3,178.5 46.1,178.5 Z" id="XMLID_1_" fill="#FC3527"></path>
                        <polygon id="Shape" fill="#2C3439" points="194.9 29.1 151.9 79.8 178.9 87.8 132.9 115.8 163.9 137.8 132.9 174.8 174.8 134.8 147.9 114.8 199.9 88.8 166.4 74.8 207.9 38.8 207.6 29.1"></polygon>
                    </g>
                </g>
            </g>
        </g>
    </g>
</svg>