<?xml version="1.0" encoding="UTF-8"?>
<svg width="255px" height="202px" viewBox="0 0 255 202" version="1.1" xmlns="http://www.w3.org/2000/svg" xmlns:xlink="http://www.w3.org/1999/xlink">
    <!-- Generator: Sketch 41 (35326) - http://www.bohemiancoding.com/sketch -->
    <title>cellular</title>
    <desc>Created with Sketch.</desc>
    <defs></defs>
    <g id="Page-1" stroke="none" stroke-width="1" fill="none" fill-rule="evenodd">
        <g id="cellular">
            <g id="Layer_1">
                <path d="M36.5,129.4 C34.4,128.4 31.8,128.8 30,130.3 L5.8,151 C4.5,152.1 3.7,153.8 3.7,155.6 L3.7,191.9 C3.7,195.2 6.4,197.9 9.7,197.9 L33.9,197.9 C37.2,197.9 39.9,195.2 39.9,191.9 L39.9,134.9 C40,132.5 38.6,130.4 36.5,129.4 Z" id="XMLID_195_" fill="#ED6C0D"></path>
                <path d="M33.9,201.4 L9.8,201.4 C4.5,201.4 0.3,197.1 0.3,191.9 L0.3,155.6 C0.3,152.8 1.5,150.2 3.6,148.3 L27.8,127.6 C30.6,125.2 34.6,124.6 38,126.2 C41.4,127.8 43.6,131.2 43.6,134.9 L43.6,191.9 C43.5,197.1 39.2,201.4 33.9,201.4 Z M33.9,132.3 C33.3,132.3 32.7,132.5 32.2,132.9 L8,153.6 C7.4,154.1 7.1,154.8 7.1,155.5 L7.1,191.8 C7.1,193.2 8.2,194.3 9.6,194.3 L33.8,194.3 C35.2,194.3 36.3,193.2 36.3,191.8 L36.3,134.8 C36.3,133.8 35.7,132.9 34.8,132.5 L34.8,132.5 C34.7,132.4 34.3,132.3 33.9,132.3 Z" id="XMLID_197_" fill="#2C3439"></path>
                <path d="M84.9,87.9 C82.8,86.9 80.2,87.3 78.4,88.8 L54.2,109.5 C52.9,110.6 52.1,112.3 52.1,114.1 L52.1,191.9 C52.1,195.2 54.8,197.9 58.1,197.9 L82.3,197.9 C85.6,197.9 88.3,195.2 88.3,191.9 L88.3,93.4 C88.4,91 87,88.9 84.9,87.9 Z" id="XMLID_185_" fill="#ED6C0D"></path>
                <path d="M82.3,201.4 L58.1,201.4 C52.8,201.4 48.6,197.1 48.6,191.9 L48.6,114.1 C48.6,111.3 49.8,108.7 51.9,106.8 L76.1,86.1 C78.9,83.7 82.9,83.1 86.3,84.7 C89.7,86.3 91.9,89.7 91.9,93.4 L91.9,191.9 C91.9,197.1 87.6,201.4 82.3,201.4 Z M82.3,90.8 C81.7,90.8 81.1,91 80.6,91.4 L56.4,112.1 C55.8,112.6 55.5,113.3 55.5,114 L55.5,191.8 C55.5,193.2 56.6,194.3 58,194.3 L82.2,194.3 C83.6,194.3 84.7,193.2 84.7,191.8 L84.7,93.3 C84.7,92.3 84.1,91.4 83.2,91 L83.2,91 C83.1,90.9 82.7,90.8 82.3,90.8 Z" id="XMLID_186_" fill="#2C3439"></path>
                <path d="M133.2,46.4 C131.1,45.4 128.5,45.8 126.7,47.3 L102.6,68 C101.3,69.1 100.5,70.8 100.5,72.6 L100.5,191.9 C100.5,195.2 103.2,197.9 106.5,197.9 L130.7,197.9 C134,197.9 136.7,195.2 136.7,191.9 L136.7,51.9 C136.8,49.5 135.4,47.4 133.2,46.4 Z" id="XMLID_181_" fill="#ED6C0D"></path>
                <path d="M130.7,201.4 L106.5,201.4 C101.2,201.4 97,197.1 97,191.9 L97,72.6 C97,69.8 98.2,67.2 100.3,65.3 L124.5,44.6 C127.3,42.2 131.3,41.6 134.7,43.2 C138.1,44.8 140.3,48.2 140.3,51.9 L140.3,191.9 C140.3,197.1 136,201.4 130.7,201.4 Z M130.7,49.3 C130.1,49.3 129.5,49.5 129,49.9 L104.8,70.6 C104.2,71.1 103.9,71.8 103.9,72.5 L103.9,191.8 C103.9,193.2 105,194.3 106.4,194.3 L130.6,194.3 C132,194.3 133.1,193.2 133.1,191.8 L133.1,51.8 C133.1,50.8 132.5,49.9 131.6,49.5 L131.6,49.5 C131.4,49.4 131.1,49.3 130.7,49.3 Z" id="XMLID_182_" fill="#2C3439"></path>
                <path d="M181.6,4.9 C179.5,3.9 176.9,4.3 175.1,5.8 L151,26.5 C149.7,27.6 148.9,29.3 148.9,31.1 L148.9,191.9 C148.9,195.2 151.6,197.9 154.9,197.9 L179.1,197.9 C182.4,197.9 185.1,195.2 185.1,191.9 L185.1,10.4 C185.2,8 183.8,5.9 181.6,4.9 Z" id="XMLID_176_" fill="#ED6C0D"></path>
                <path d="M179.1,201.4 L154.9,201.4 C149.6,201.4 145.4,197.1 145.4,191.9 L145.4,31.1 C145.4,28.3 146.6,25.7 148.7,23.8 L172.9,3.1 C175.7,0.7 179.7,0.1 183.1,1.7 L183.1,1.7 C186.5,3.3 188.7,6.7 188.7,10.4 L188.7,191.9 C188.7,197.1 184.4,201.4 179.1,201.4 Z M179.1,7.8 C178.5,7.8 177.9,8 177.4,8.4 L153.2,29.1 C152.6,29.6 152.3,30.3 152.3,31 L152.3,191.8 C152.3,193.2 153.4,194.3 154.8,194.3 L179,194.3 C180.4,194.3 181.5,193.2 181.5,191.8 L181.5,10.4 C181.5,9.4 180.9,8.5 180,8.1 L180,8.1 C179.8,7.9 179.5,7.8 179.1,7.8 Z" id="XMLID_177_" fill="#2C3439"></path>
                <path d="M201.9,77.6 C172.6,77.6 148.9,101.3 148.9,130.6 C148.9,159.9 172.6,183.6 201.9,183.6 C231.2,183.6 254.9,159.9 254.9,130.6 C254.9,101.3 231.2,77.6 201.9,77.6 Z M201.9,173.8 C178,173.8 158.7,154.5 158.7,130.6 C158.7,106.7 178,87.4 201.9,87.4 C225.8,87.4 245.1,106.7 245.1,130.6 C245.1,154.5 225.7,173.8 201.9,173.8 Z M201.9,100.8 C198,100.8 195.3,102.8 195.3,106 L195.3,135.3 C195.3,138.5 198.3,140.5 201.9,140.5 C205.5,140.5 208.5,138.5 208.5,135.3 L208.5,106 C208.7,102.8 205.7,100.8 201.9,100.8 Z M201.9,147.2 C198.3,147.2 195.3,150.2 195.3,153.8 C195.3,157.4 198.3,160.4 201.9,160.4 C205.5,160.4 208.5,157.4 208.5,153.8 C208.5,150.1 205.5,147.2 201.9,147.2 Z" id="XMLID_187_" fill="#FC3527"></path>
            </g>
        </g>
    </g>
</svg>