<?xml version="1.0" encoding="UTF-8"?>
<svg width="249px" height="179px" viewBox="0 0 249 179" version="1.1" xmlns="http://www.w3.org/2000/svg" xmlns:xlink="http://www.w3.org/1999/xlink">
    <!-- Generator: Sketch 41 (35326) - http://www.bohemiancoding.com/sketch -->
    <title>wifi</title>
    <desc>Created with Sketch.</desc>
    <defs></defs>
    <g id="Page-1" stroke="none" stroke-width="1" fill="none" fill-rule="evenodd">
        <g id="wifi">
            <g id="Layer_1">
                <path d="M132.6,168.4 C123.7,177.9 108.8,178.4 99.3,169.5 C89.8,160.6 89.3,145.7 98.2,136.2 C107.1,126.7 122,126.2 131.5,135.1 C141,144 141.5,159 132.6,168.4 Z" id="XMLID_153_" fill="#F15C22"></path>
                <path d="M175,106 C170.6,110.7 163.1,111 158.4,106.5 C133.2,82.8 93.4,84.1 69.7,109.4 C65.3,114.1 57.8,114.4 53.1,109.9 C48.4,105.4 48.1,98 52.6,93.3 C68.4,76.5 89.7,66.8 112.8,66.1 C135.8,65.3 157.8,73.6 174.6,89.4 C179.2,93.8 179.5,101.3 175,106 Z" id="XMLID_152_" fill="#FFFFFF"></path>
                <path d="M217.9,60.2 C213.5,64.9 206,65.2 201.3,60.7 C150.8,13.4 71.2,16 23.9,66.5 C19.5,71.2 12,71.5 7.3,67 C2.6,62.6 2.3,55.1 6.8,50.4 C20.6,35.7 36.8,24.2 55,16.1 C72.6,8.3 91.4,4 110.7,3.4 C130,2.8 149,5.8 167.1,12.5 C185.8,19.4 202.8,29.9 217.4,43.6 C222.1,48 222.4,55.5 217.9,60.2 Z" id="XMLID_151_" fill="#FFFFFF"></path>
                <path d="M96.2,134.2 C86.2,144.9 86.8,161.6 97.4,171.6 C108,181.6 124.8,181 134.8,170.4 C144.8,159.7 144.2,143 133.6,133 C122.9,123 106.1,123.6 96.2,134.2 Z M130.5,166.4 C122.7,174.7 109.7,175.1 101.4,167.3 C93.1,159.5 92.7,146.5 100.5,138.2 C108.3,129.9 121.3,129.5 129.6,137.3 C137.9,145.1 138.3,158.1 130.5,166.4 Z" id="XMLID_160_" fill="#2C3439"></path>
                <path d="M50.4,91.3 C44.9,97.2 45.2,106.5 51.1,112.1 C57,117.7 66.3,117.3 71.9,111.4 C94.4,87.3 132.4,86.1 156.4,108.6 C162.3,114.1 171.6,113.8 177.2,107.9 C182.7,102 182.4,92.7 176.5,87.1 C159.1,70.8 136.4,62.3 112.6,63 C88.8,63.9 66.7,74 50.4,91.3 Z M172.9,104 C169.6,107.6 164,107.7 160.4,104.4 C134,79.6 92.3,81 67.5,107.4 C64.2,111 58.6,111.1 55,107.8 C51.4,104.5 51.3,98.9 54.6,95.3 C69.8,79.1 90.5,69.7 112.7,69 C134.9,68.3 156.1,76.3 172.4,91.5 C176,94.9 176.2,100.5 172.9,104 Z" id="XMLID_159_" fill="#2C3439"></path>
                <path d="M168,9.7 C149.6,2.9 130.2,-0.2 110.5,0.4 C90.8,1 71.7,5.4 53.7,13.4 C35.1,21.7 18.6,33.4 4.5,48.4 C-1,54.3 -0.7,63.6 5.2,69.2 C11.1,74.8 20.4,74.4 26,68.5 C72.2,19.2 149.9,16.7 199.2,62.9 C205.1,68.4 214.4,68.1 220,62.2 C225.6,56.3 225.2,47 219.3,41.4 C204.4,27.4 187.1,16.7 168,9.7 Z M215.8,58.2 C212.5,61.8 206.9,61.9 203.3,58.6 C151.6,10.2 70.2,12.8 21.7,64.5 C18.4,68.1 12.8,68.2 9.2,64.9 C5.6,61.6 5.5,56 8.8,52.4 C22.3,38 38.2,26.7 56.1,18.8 C73.4,11.1 91.7,6.9 110.7,6.3 C129.7,5.7 148.3,8.7 166,15.2 C184.4,22 201,32.2 215.4,45.7 C218.9,49.1 219.1,54.7 215.8,58.2 Z" id="XMLID_157_" fill="#2C3439"></path>
                <path d="M202.5,60.9 C177,60.9 156.4,81.5 156.4,107 C156.4,132.5 177,153.1 202.5,153.1 C228,153.1 248.6,132.5 248.6,107 C248.6,81.5 228,60.9 202.5,60.9 Z M202.5,144.5 C181.7,144.5 164.9,127.7 164.9,106.9 C164.9,86.1 181.7,69.3 202.5,69.3 C223.3,69.3 240.1,86.1 240.1,106.9 C240.1,127.7 223.2,144.5 202.5,144.5 Z M202.5,81.1 C199.1,81.1 196.8,82.8 196.8,85.6 L196.8,111.1 C196.8,113.9 199.4,115.6 202.5,115.6 C205.6,115.6 208.2,113.9 208.2,111.1 L208.2,85.6 C208.4,82.8 205.8,81.1 202.5,81.1 Z M202.5,121.4 C199.4,121.4 196.8,124 196.8,127.1 C196.8,130.2 199.4,132.8 202.5,132.8 C205.6,132.8 208.2,130.2 208.2,127.1 C208.3,123.9 205.7,121.4 202.5,121.4 Z" id="XMLID_140_" fill="#FC3527"></path>
            </g>
        </g>
    </g>
</svg>